<svg id="Layer_1" data-name="Layer 1" xmlns="http://www.w3.org/2000/svg" viewBox="0 0 200.4 66.5"><defs><style>.cls-1{fill:#d3dce6;}.cls-2{fill:#fff;}</style></defs><title>shopify</title><path class="cls-1" d="M44.23,14.92a.54.54,0,0,0-.48-.45c-.21,0-4.14-.08-4.14-.08L36,10.87a1.32,1.32,0,0,0-1.21-.15l-1.66.51a11.91,11.91,0,0,0-.79-2c-1.17-2.24-2.89-3.42-5-3.42h0l-.43,0-.19-.21a4.36,4.36,0,0,0-3.45-1.4c-2.68.08-5.35,2-7.52,5.45a21.68,21.68,0,0,0-3,7.81L7.48,19.17c-1.55.49-1.6.53-1.8,2-.15,1.11-4.22,32.54-4.22,32.54L35.53,59.6l14.76-3.67ZM31.42,11.76l-2.65.81A14.67,14.67,0,0,0,28,7.7C30,8.08,31,10.38,31.42,11.76ZM27,13.13,21.3,14.89a13.53,13.53,0,0,1,2.88-5.58,5.6,5.6,0,0,1,1.93-1.4A12.79,12.79,0,0,1,27,13.13ZM23.34,6.05A2.74,2.74,0,0,1,25,6.48,7.64,7.64,0,0,0,22.87,8.1a15.61,15.61,0,0,0-3.53,7.39l-4.67,1.45C15.59,12.63,19.2,6.17,23.34,6.05Z"/><path class="cls-1" d="M43.75,14.47l-4.14-.07s-3.3-3.2-3.62-3.53a.85.85,0,0,0-.46-.21V59.6l14.76-3.67-6.06-41A.54.54,0,0,0,43.75,14.47Z"/><path class="cls-2" d="M27.35,22.06l-1.72,6.42a9.76,9.76,0,0,0-4.18-.73c-3.32.21-3.36,2.31-3.33,2.84.19,2.86,7.73,3.49,8.16,10.21.33,5.29-2.81,8.9-7.33,9.19a11,11,0,0,1-8.41-2.86l1.15-4.89s3,2.27,5.41,2.12a2.13,2.13,0,0,0,2.08-2.28c-.24-3.75-6.38-3.53-6.77-9.68C12.08,27.23,15.48,22,23,21.51A9.34,9.34,0,0,1,27.35,22.06Z"/><path class="cls-1" d="M69.74,35.5c-1.7-.92-2.57-1.7-2.57-2.77,0-1.36,1.21-2.23,3.1-2.23a11.12,11.12,0,0,1,4.17.92L76,26.67s-1.42-1.12-5.62-1.12c-5.85,0-9.9,3.35-9.9,8.05,0,2.67,1.89,4.71,4.42,6.16,2,1.17,2.76,2,2.76,3.2s-1,2.28-2.91,2.28a13.09,13.09,0,0,1-5.48-1.45l-1.65,4.75a12.63,12.63,0,0,0,6.6,1.65c6,0,10.33-3,10.33-8.29C74.54,39,72.36,37,69.74,35.5Z"/><path class="cls-1" d="M93.7,25.51a9,9,0,0,0-7.08,3.54l-.1-.05,2.57-13.44h-6.7L75.9,49.75h6.69l2.23-11.68c.87-4.42,3.15-7.13,5.29-7.13,1.5,0,2.08,1,2.08,2.47a14.85,14.85,0,0,1-.29,3L89.38,49.76h6.69l2.62-13.83a25.06,25.06,0,0,0,.49-4.36C99.18,27.78,97.19,25.51,93.7,25.51Z"/><path class="cls-1" d="M114.31,25.51c-8,0-13.39,7.27-13.39,15.37,0,5.19,3.2,9.36,9.22,9.36,7.9,0,13.24-7.08,13.24-15.37C123.38,30.06,120.56,25.51,114.31,25.51ZM111,45.1c-2.28,0-3.25-1.94-3.25-4.37,0-3.83,2-10.08,5.63-10.08,2.37,0,3.15,2,3.15,4C116.54,38.79,114.55,45.1,111,45.1Z"/><path class="cls-1" d="M140.5,25.51c-4.52,0-7.08,4-7.08,4h-.1l.39-3.59h-5.92c-.29,2.43-.82,6.11-1.36,8.88l-4.65,24.49h6.69l1.84-9.89h.15a7.8,7.8,0,0,0,3.93.87c7.85,0,13-8.05,13-16.2C147.38,29.53,145.39,25.51,140.5,25.51ZM134.1,45.2a4.27,4.27,0,0,1-2.77-1L132.45,38c.77-4.17,3-6.94,5.28-6.94,2,0,2.67,1.9,2.67,3.69C140.4,39,137.83,45.2,134.1,45.2Z"/><path class="cls-1" d="M156.94,15.9a3.82,3.82,0,0,0-3.83,3.88,3.08,3.08,0,0,0,3.15,3.35h.1a3.79,3.79,0,0,0,3.93-3.88A3.19,3.19,0,0,0,156.94,15.9Z"/><path class="cls-1" d="M147.58,49.75h6.69L158.83,26h-6.74Z"/><path class="cls-1" d="M175.85,26H171.2l.24-1.11c.39-2.28,1.75-4.32,4-4.32a6.94,6.94,0,0,1,2.13.34l1.31-5.24a8.84,8.84,0,0,0-3.64-.58,10,10,0,0,0-6.55,2.23,12.74,12.74,0,0,0-3.88,7.57L164.6,26h-3.1l-1,5.05h3.1l-3.54,18.72h6.69L170.33,31h4.6Z"/><path class="cls-1" d="M192,26s-4.18,10.54-6.06,16.3h-.1c-.12-1.86-1.64-16.3-1.64-16.3h-7l4,21.77a1.39,1.39,0,0,1-.15,1.12,11.46,11.46,0,0,1-3.63,4,14.54,14.54,0,0,1-3.79,1.89l1.85,5.67A15.19,15.19,0,0,0,182,56.89c3.06-2.87,5.87-7.28,8.78-13.29L198.94,26Z"/></svg>