<svg width="569" height="271" viewBox="0 0 569 271" fill="none" xmlns="http://www.w3.org/2000/svg">
<rect width="569" height="271" fill="#0F172A"/>
<path d="M143.276 99.3287H15.5588C11.612 99.3242 7.82824 97.7552 5.0375 94.966C2.24675 92.1767 0.676975 88.395 0.672577 84.4505V14.9291C0.677002 10.9847 2.24682 7.20312 5.03759 4.41403C7.82835 1.62494 11.6121 0.0561477 15.5588 0.0518494H143.276C147.223 0.0561503 151.007 1.62493 153.797 4.41401C156.588 7.2031 158.158 10.9847 158.162 14.9291V84.4504C158.158 88.395 156.588 92.1767 153.797 94.9659C151.007 97.7552 147.223 99.3242 143.276 99.3287Z" fill="#334155"/>
<path d="M338.263 99.3287H210.546C206.599 99.3242 202.816 97.7552 200.025 94.966C197.234 92.1767 195.664 88.395 195.66 84.4505V14.9291C195.664 10.9847 197.234 7.20312 200.025 4.41403C202.816 1.62494 206.599 0.0561477 210.546 0.0518494H338.263C342.21 0.0561451 345.994 1.62492 348.785 4.41401C351.575 7.2031 353.145 10.9847 353.15 14.9291V84.4504C353.145 88.395 351.575 92.1767 348.785 94.9659C345.994 97.7552 342.21 99.3242 338.263 99.3287Z" fill="#84CC16"/>
<path d="M533.251 99.3287H405.533C401.587 99.3242 397.803 97.7552 395.012 94.966C392.221 92.1767 390.652 88.395 390.647 84.4505V14.9291C390.652 10.9847 392.221 7.20312 395.012 4.41403C397.803 1.62494 401.587 0.0561477 405.533 0.0518494H533.251C537.197 0.0561451 540.981 1.62492 543.772 4.41401C546.563 7.2031 548.132 10.9847 548.137 14.9291V84.4504C548.132 88.395 546.563 92.1767 543.772 94.9659C540.981 97.7552 537.197 99.3242 533.251 99.3287Z" fill="#1E293B"/>
<path d="M143.276 254.23H15.5588C11.612 254.226 7.82824 252.657 5.0375 249.868C2.24675 247.078 0.676975 243.297 0.672577 239.352V169.831C0.677005 165.886 2.24682 162.105 5.03759 159.316C7.82835 156.527 11.6121 154.958 15.5588 154.954H143.276C147.223 154.958 151.007 156.527 153.797 159.316C156.588 162.105 158.158 165.886 158.162 169.831V239.352C158.158 243.297 156.588 247.078 153.797 249.868C151.007 252.657 147.223 254.226 143.276 254.23Z" fill="#94A3B8"/>
<path d="M92.638 171.294C92.638 171.294 89.1434 181.011 93.1926 185.392L89.8166 196.936C89.8166 196.936 101.811 232.74 98.3843 237.741C98.3843 237.741 85.5905 244.106 60 235.467L70.3948 195.344L68.91 178.408L70.966 170.451L75.5351 170C75.5351 170 72.7938 180.23 77.82 181.821C82.8462 183.413 87.7493 170.256 87.7493 170.256L92.638 171.294Z" fill="#3F3D56"/>
<path d="M338.263 254.23H210.546C206.599 254.226 202.816 252.657 200.025 249.868C197.234 247.078 195.664 243.297 195.66 239.352V169.831C195.664 165.886 197.234 162.105 200.025 159.316C202.816 156.527 206.599 154.958 210.546 154.954H338.263C342.21 154.958 345.994 156.527 348.785 159.316C351.575 162.105 353.145 165.886 353.15 169.831V239.352C353.145 243.297 351.575 247.078 348.785 249.868C345.994 252.657 342.21 254.226 338.263 254.23Z" fill="#475569"/>
<path d="M347.281 267.023C359.879 267.023 370.092 256.816 370.092 244.225C370.092 231.635 359.879 221.428 347.281 221.428C334.683 221.428 324.471 231.635 324.471 244.225C324.471 256.816 334.683 267.023 347.281 267.023Z" fill="#84CC16"/>
<path d="M356.754 242.311H348.998V234.56C348.998 234.32 348.951 234.083 348.859 233.862C348.767 233.64 348.633 233.439 348.463 233.27C348.294 233.101 348.093 232.966 347.871 232.875C347.65 232.783 347.413 232.736 347.173 232.736C346.933 232.736 346.696 232.783 346.475 232.875C346.253 232.966 346.052 233.101 345.883 233.27C345.713 233.439 345.579 233.64 345.487 233.862C345.395 234.083 345.348 234.32 345.348 234.56V242.311H337.592C337.353 242.311 337.115 242.358 336.894 242.45C336.673 242.541 336.471 242.676 336.302 242.845C336.133 243.015 335.998 243.216 335.906 243.437C335.815 243.658 335.767 243.895 335.768 244.135C335.767 244.374 335.815 244.612 335.906 244.833C335.998 245.054 336.133 245.255 336.302 245.425C336.471 245.594 336.673 245.728 336.894 245.82C337.115 245.912 337.353 245.959 337.592 245.959H345.348V253.71C345.348 253.95 345.395 254.187 345.487 254.408C345.579 254.629 345.713 254.83 345.883 255C346.052 255.169 346.253 255.304 346.475 255.395C346.696 255.487 346.933 255.534 347.173 255.534C347.657 255.534 348.121 255.342 348.464 255C348.806 254.658 348.998 254.194 348.998 253.71V245.959H356.753C356.993 245.959 357.23 245.912 357.452 245.82C357.673 245.728 357.874 245.594 358.044 245.425C358.213 245.255 358.348 245.054 358.44 244.833C358.531 244.612 358.578 244.374 358.578 244.135C358.578 243.895 358.531 243.658 358.44 243.437C358.348 243.216 358.213 243.014 358.044 242.845C357.874 242.676 357.673 242.541 357.452 242.45C357.23 242.358 356.993 242.311 356.753 242.311L356.754 242.311Z" fill="white"/>
<path d="M545.268 116.119C557.866 116.119 568.079 105.912 568.079 93.3211C568.079 80.7303 557.866 70.5234 545.268 70.5234C532.67 70.5234 522.458 80.7303 522.458 93.3211C522.458 105.912 532.67 116.119 545.268 116.119Z" fill="#84CC16"/>
<path d="M554.741 91.4067H546.985V83.6555C546.985 83.416 546.938 83.1788 546.846 82.9575C546.754 82.7362 546.62 82.5351 546.451 82.3657C546.281 82.1964 546.08 82.062 545.858 81.9704C545.637 81.8787 545.4 81.8315 545.16 81.8315C544.92 81.8315 544.683 81.8787 544.462 81.9704C544.24 82.062 544.039 82.1964 543.87 82.3657C543.7 82.5351 543.566 82.7362 543.474 82.9575C543.382 83.1788 543.335 83.416 543.335 83.6555V91.4067H535.58C535.34 91.4067 535.103 91.4539 534.881 91.5455C534.66 91.6372 534.459 91.7715 534.289 91.9409C534.12 92.1103 533.985 92.3113 533.893 92.5326C533.802 92.7539 533.755 92.9911 533.755 93.2306C533.755 93.4701 533.802 93.7073 533.893 93.9286C533.985 94.1499 534.12 94.351 534.289 94.5204C534.459 94.6897 534.66 94.8241 534.881 94.9157C535.103 95.0074 535.34 95.0546 535.58 95.0546H543.335V102.806C543.335 103.045 543.382 103.283 543.474 103.504C543.566 103.725 543.7 103.926 543.87 104.096C544.039 104.265 544.24 104.399 544.462 104.491C544.683 104.583 544.92 104.63 545.16 104.63C545.644 104.63 546.108 104.438 546.451 104.096C546.793 103.753 546.985 103.29 546.985 102.806V95.0545H554.741C554.98 95.0545 555.218 95.0073 555.439 94.9157C555.66 94.824 555.862 94.6897 556.031 94.5203C556.2 94.3509 556.335 94.1499 556.427 93.9286C556.518 93.7073 556.566 93.4701 556.566 93.2306C556.566 92.991 556.518 92.7539 556.427 92.5326C556.335 92.3113 556.2 92.1102 556.031 91.9408C555.862 91.7715 555.66 91.6371 555.439 91.5455C555.218 91.4538 554.98 91.4066 554.741 91.4066L554.741 91.4067Z" fill="white"/>
<path d="M152.294 114.12C164.892 114.12 175.105 103.913 175.105 91.3224C175.105 78.7316 164.892 68.5247 152.294 68.5247C139.696 68.5247 129.483 78.7316 129.483 91.3224C129.483 103.913 139.696 114.12 152.294 114.12Z" fill="#84CC16"/>
<path d="M161.766 89.408H154.011V81.6568C154.011 81.4172 153.963 81.18 153.872 80.9588C153.78 80.7375 153.646 80.5364 153.476 80.367C153.307 80.1977 153.105 80.0633 152.884 79.9717C152.663 79.88 152.425 79.8328 152.186 79.8328C151.946 79.8328 151.709 79.88 151.487 79.9717C151.266 80.0633 151.065 80.1977 150.895 80.367C150.726 80.5364 150.591 80.7375 150.5 80.9588C150.408 81.1801 150.361 81.4172 150.361 81.6568V89.408H142.605C142.365 89.408 142.128 89.4552 141.907 89.5468C141.685 89.6385 141.484 89.7728 141.315 89.9422C141.145 90.1116 141.011 90.3126 140.919 90.5339C140.827 90.7552 140.78 90.9924 140.78 91.2319C140.78 91.7156 140.972 92.1796 141.315 92.5216C141.657 92.8637 142.121 93.0559 142.605 93.0559H150.361V100.807C150.361 101.047 150.408 101.284 150.5 101.505C150.591 101.726 150.726 101.927 150.895 102.097C151.065 102.266 151.266 102.401 151.487 102.492C151.709 102.584 151.946 102.631 152.186 102.631C152.425 102.631 152.663 102.584 152.884 102.492C153.105 102.401 153.307 102.266 153.476 102.097C153.646 101.927 153.78 101.726 153.872 101.505C153.963 101.284 154.011 101.047 154.011 100.807V93.0558H161.766C162.006 93.0558 162.243 93.0086 162.465 92.917C162.686 92.8253 162.887 92.6909 163.057 92.5216C163.226 92.3522 163.361 92.1511 163.452 91.9299C163.544 91.7086 163.591 91.4714 163.591 91.2318C163.591 90.7481 163.399 90.2842 163.057 89.9421C162.714 89.6001 162.25 89.4079 161.766 89.4079V89.408Z" fill="white"/>
<path d="M149.686 270.019C162.284 270.019 172.497 259.812 172.497 247.221C172.497 234.63 162.284 224.423 149.686 224.423C137.088 224.423 126.876 234.63 126.876 247.221C126.876 259.812 137.088 270.019 149.686 270.019Z" fill="#E6E6E6"/>
<path d="M492.899 234.119H412.891C410.419 234.116 408.049 233.133 406.3 231.386C404.552 229.639 403.569 227.27 403.566 224.799V181.247C403.569 178.776 404.552 176.407 406.3 174.66C408.049 172.913 410.419 171.93 412.891 171.928H492.899C495.371 171.93 497.742 172.913 499.49 174.66C501.238 176.407 502.222 178.776 502.224 181.247V224.799C502.222 227.27 501.238 229.639 499.49 231.386C497.742 233.133 495.371 234.116 492.899 234.119Z" fill="#CBD5E1"/>
<path d="M494.078 216.429C500.768 216.429 506.192 211.008 506.192 204.322C506.192 197.635 500.768 192.215 494.078 192.215C487.388 192.215 481.964 197.635 481.964 204.322C481.964 211.008 487.388 216.429 494.078 216.429Z" fill="#84CC16"/>
<path d="M499.108 203.305H494.989V199.189C494.989 199.062 494.964 198.936 494.916 198.818C494.867 198.701 494.796 198.594 494.706 198.504C494.616 198.414 494.509 198.343 494.391 198.294C494.274 198.245 494.148 198.22 494.02 198.22C493.763 198.22 493.517 198.322 493.335 198.504C493.153 198.685 493.051 198.932 493.051 199.189V203.305H488.932C488.675 203.305 488.429 203.407 488.247 203.589C488.065 203.77 487.963 204.017 487.963 204.274C487.963 204.401 487.988 204.527 488.037 204.644C488.086 204.762 488.157 204.869 488.247 204.959C488.337 205.049 488.444 205.12 488.562 205.169C488.679 205.217 488.805 205.242 488.932 205.242H493.051V209.359C493.051 209.486 493.076 209.612 493.125 209.729C493.174 209.847 493.245 209.954 493.335 210.044C493.425 210.133 493.532 210.205 493.649 210.254C493.767 210.302 493.893 210.327 494.02 210.327C494.277 210.327 494.524 210.225 494.706 210.044C494.887 209.862 494.989 209.616 494.989 209.359V205.242H499.108C499.365 205.242 499.612 205.14 499.793 204.959C499.975 204.777 500.077 204.531 500.077 204.274C500.077 204.147 500.052 204.021 500.004 203.903C499.955 203.786 499.883 203.679 499.793 203.589C499.703 203.499 499.597 203.428 499.479 203.379C499.361 203.33 499.235 203.305 499.108 203.305L499.108 203.305Z" fill="white"/>
<path d="M525.495 221.76H459.561C456.763 221.757 454.08 220.644 452.101 218.667C450.122 216.689 449.009 214.008 449.006 211.211V171.876C449.007 171.361 449.212 170.868 449.577 170.504C449.941 170.141 450.435 169.937 450.95 169.937C451.465 169.937 451.959 170.141 452.324 170.504C452.689 170.868 452.894 171.361 452.895 171.876V182.41L529.481 189.368C531.01 189.395 532.469 190.021 533.541 191.112C534.614 192.202 535.216 193.669 535.218 195.198C535.218 195.318 535.207 195.438 535.185 195.556L531.325 216.128C531.272 217.638 530.635 219.069 529.547 220.12C528.46 221.17 527.007 221.758 525.495 221.76ZM452.895 186.313V211.211C452.897 212.977 453.6 214.67 454.85 215.919C456.1 217.168 457.794 217.871 459.561 217.873H525.495C526.01 217.872 526.505 217.667 526.869 217.303C527.234 216.938 527.439 216.444 527.44 215.929C527.44 215.809 527.451 215.689 527.473 215.571L531.323 195.048C531.285 194.56 531.064 194.105 530.705 193.773C530.345 193.44 529.874 193.255 529.384 193.255C529.325 193.255 529.267 193.252 529.208 193.246L452.895 186.313Z" fill="#84CC16"/>
<path d="M442.041 239.899C443.831 239.899 445.282 238.449 445.282 236.66C445.282 234.871 443.831 233.421 442.041 233.421C440.251 233.421 438.8 234.871 438.8 236.66C438.8 238.449 440.251 239.899 442.041 239.899Z" fill="#84CC16"/>
<path d="M522.902 239.899C524.692 239.899 526.143 238.449 526.143 236.66C526.143 234.871 524.692 233.421 522.902 233.421C521.112 233.421 519.661 234.871 519.661 236.66C519.661 238.449 521.112 239.899 522.902 239.899Z" fill="#84CC16"/>
<path d="M526.143 233.421H439.448C438.932 233.421 438.438 233.216 438.073 232.852C437.708 232.487 437.504 231.993 437.504 231.477C437.504 230.962 437.708 230.468 438.073 230.103C438.438 229.739 438.932 229.534 439.448 229.534H526.143C526.659 229.534 527.153 229.739 527.518 230.103C527.883 230.468 528.088 230.962 528.088 231.477C528.088 231.993 527.883 232.487 527.518 232.852C527.153 233.216 526.659 233.421 526.143 233.421Z" fill="#84CC16"/>
<path d="M456.136 173.172H439.283C438.768 173.17 438.274 172.965 437.911 172.601C437.547 172.236 437.343 171.743 437.343 171.228C437.343 170.713 437.547 170.22 437.911 169.855C438.274 169.491 438.768 169.286 439.283 169.285H456.136C456.651 169.286 457.145 169.491 457.509 169.855C457.872 170.22 458.076 170.713 458.076 171.228C458.076 171.743 457.872 172.236 457.509 172.601C457.145 172.965 456.651 173.17 456.136 173.172Z" fill="#84CC16"/>
<path d="M469.657 232.432C469.192 232.432 468.742 232.265 468.39 231.962L455.608 220.984C455.414 220.818 455.254 220.615 455.139 220.387C455.023 220.159 454.953 219.911 454.934 219.656C454.914 219.401 454.945 219.145 455.024 218.902C455.104 218.659 455.231 218.435 455.398 218.241C455.564 218.047 455.767 217.888 455.996 217.773C456.224 217.657 456.473 217.588 456.728 217.569C456.983 217.55 457.239 217.582 457.482 217.662C457.725 217.742 457.949 217.869 458.143 218.036L470.925 229.014C471.226 229.273 471.441 229.617 471.54 230.002C471.64 230.386 471.619 230.792 471.481 231.164C471.343 231.536 471.094 231.857 470.768 232.084C470.441 232.31 470.054 232.432 469.657 232.431V232.432Z" fill="#84CC16"/>
<path d="M472.35 220.566C472.094 220.566 471.842 220.516 471.606 220.418C471.37 220.32 471.155 220.177 470.975 219.997C470.794 219.816 470.651 219.602 470.553 219.366C470.455 219.131 470.405 218.878 470.405 218.623V187.424C470.405 186.909 470.61 186.414 470.975 186.05C471.339 185.685 471.834 185.481 472.35 185.481C472.866 185.481 473.36 185.685 473.725 186.05C474.09 186.414 474.294 186.909 474.294 187.424V218.622C474.294 218.878 474.244 219.13 474.146 219.366C474.049 219.602 473.906 219.816 473.725 219.997C473.544 220.177 473.33 220.32 473.094 220.418C472.858 220.516 472.605 220.566 472.35 220.566H472.35Z" fill="#84CC16"/>
<path d="M513.429 220.566C513.173 220.566 512.92 220.516 512.684 220.418C512.448 220.32 512.234 220.177 512.053 219.997C511.873 219.816 511.73 219.602 511.632 219.366C511.534 219.131 511.484 218.878 511.484 218.623V190.016C511.485 189.501 511.69 189.008 512.055 188.644C512.42 188.281 512.914 188.076 513.429 188.076C513.944 188.076 514.437 188.281 514.802 188.644C515.167 189.008 515.372 189.501 515.373 190.016V218.622C515.373 218.878 515.323 219.13 515.225 219.366C515.127 219.602 514.984 219.816 514.804 219.997C514.623 220.177 514.409 220.32 514.173 220.418C513.937 220.516 513.684 220.566 513.429 220.566H513.429Z" fill="#84CC16"/>
<path d="M51 80.1599L55.5114 82.0256L77.0428 53.4205L83.8095 87L88.321 86.1711C91.2147 57.2206 93.5767 27.692 90.6791 13.7258L73.9667 13L66.3799 37.4627L62.6885 54.0455L51 80.1599Z" fill="white"/>
<path d="M483.78 20.9901L501.275 14L503.309 48.9499C503.309 48.9499 506.971 59.6402 505.751 63.7522C505.751 63.7522 506.565 70.7423 504.53 71.1534C502.495 71.5644 496.797 72.3873 496.394 71.9755C495.991 71.5636 495.987 70.3305 495.987 70.3305C495.987 70.3305 491.918 73.2086 491.511 76.4977C491.511 76.4977 474.42 81.8429 474.013 76.9088C473.607 71.9747 482.558 67.8626 482.558 67.8626L489.476 57.1723L483.78 20.9901Z" fill="white"/>
<path d="M442.78 20.9901L460.275 14L462.309 48.9499C462.309 48.9499 465.971 59.6402 464.751 63.7522C464.751 63.7522 465.565 70.7423 463.53 71.1534C461.495 71.5644 455.797 72.3873 455.394 71.9755C454.991 71.5636 454.987 70.3305 454.987 70.3305C454.987 70.3305 450.918 73.2086 450.511 76.4977C450.511 76.4977 433.42 81.8429 433.013 76.9088C432.607 71.9747 441.558 67.8626 441.558 67.8626L448.476 57.1723L442.78 20.9901Z" fill="white"/>
<path d="M304.745 31.2656C302.765 28.9014 299.361 27.6234 296.093 26.9323C296.186 26.637 286.152 24.5737 285.982 24.9985L282.198 22L270.573 28.0053L264.041 23.5807L261.007 24.652C261.131 24.1192 251.588 25.7642 251.588 25.7642C249.765 25.8294 247.437 25.943 244.83 26.1423C235.703 26.841 235 50.3612 235 50.3612C239.199 48.6519 243.677 47.7191 248.213 47.6086L250.68 75.7398C263.368 74.6574 276.676 75.9168 290.469 79L296.937 56.8863L312 51.058C312 51.058 309.426 36.8536 304.745 31.2656Z" fill="#3F3D56"/>
<path d="M291.855 182.309C290.724 180.954 288.779 180.221 286.911 179.826C286.967 179.656 281.23 178.474 281.132 178.718L278.97 177L272.328 180.441L268.595 177.906L266.861 178.52C266.932 178.215 261.479 179.157 261.479 179.157C260.44 179.195 259.106 179.259 257.617 179.374C252.401 179.774 252 193.25 252 193.25C254.4 192.271 256.959 191.736 259.551 191.673L260.961 231.132C268.211 230.511 275.816 231.234 283.696 233L287.392 196.99L296 193.651C296 193.651 294.53 185.512 291.855 182.309Z" fill="white"/>
</svg>
