<svg width="171" height="40" viewBox="0 0 171 40" fill="none" xmlns="http://www.w3.org/2000/svg">
<path fill-rule="evenodd" clip-rule="evenodd" d="M33.8994 39.9995H36.2592C36.8059 39.9995 37.2664 39.5296 37.2951 38.9716V12.7458C37.2951 10.1614 35.252 8.07625 32.7195 8.07625H29.698C29.1512 8.07625 28.6908 7.60638 28.6908 7.04835V4.66955C28.6908 2.08514 26.6476 0 24.1152 0H4.57556C2.04318 0 0 2.08514 0 4.66955V31.0128C0 33.5679 2.04318 35.653 4.57556 35.6824H27.2231C27.4246 35.6824 27.626 35.7411 27.7987 35.8586L33.3239 39.8233C33.4966 39.9408 33.698 39.9995 33.8994 39.9995ZM28.403 31.9526H4.63312C4.05757 31.9526 3.62592 31.5121 3.62592 30.9247V4.72828C3.62592 4.17028 4.08635 3.70039 4.63312 3.70039H24.0577C24.6044 3.70039 25.0649 4.17028 25.0649 4.72828V7.04835C25.0649 7.60638 24.6044 8.07625 24.0577 8.07625H9.58276C9.036 8.07625 8.57555 8.54613 8.57555 9.10415V26.5782C8.57555 27.1362 9.036 27.6061 9.58276 27.6061H27.6548C28.2016 27.6061 28.662 27.1362 28.662 26.5782V12.8045C28.662 12.2465 29.1224 11.7766 29.6692 11.7766H32.6332C33.18 11.7766 33.6404 12.2465 33.6404 12.8045V34.2433C33.6404 34.7719 33.0649 35.0656 32.662 34.7719L28.9785 32.1288C28.8059 32.0114 28.6045 31.9526 28.403 31.9526ZM24.5469 23.8763H12.6907C12.4317 23.8763 12.2015 23.6708 12.2015 23.3771V12.2759C12.2015 12.0116 12.4029 11.7766 12.6907 11.7766H24.5469C24.8059 11.7766 25.0361 11.9822 25.0361 12.2759V23.3771C25.0361 23.6414 24.8346 23.8763 24.5469 23.8763ZM128.957 5.58422C130.468 5.58422 131.693 4.33415 131.693 2.79211C131.693 1.25007 130.468 0 128.957 0C127.446 0 126.221 1.25007 126.221 2.79211C126.221 4.33415 127.446 5.58422 128.957 5.58422ZM97.746 9.66621V8.11504H93.3382V27.453H97.746V14.2421L102.889 12.0705V7.54622H102.838L97.746 9.66621ZM80.6685 8.09763C77.806 8.09763 75.4754 9.05417 73.702 10.9931C72.8915 11.898 72.2578 12.9321 71.8023 14.1472C71.3714 15.3364 71.1434 16.6032 71.1434 17.9217C71.1434 20.6363 71.9034 22.8854 73.4487 24.6176C75.1463 26.5307 77.4768 27.4614 80.4404 27.4614C83.3282 27.4614 85.6335 26.5048 87.3816 24.5659C89.028 22.7303 89.8638 20.4294 89.8638 17.6373C89.8638 14.8452 89.0533 12.596 87.4574 10.838C85.7605 9.00248 83.5058 8.09763 80.6685 8.09763ZM84.1135 21.8513C83.2777 22.9113 82.112 23.4542 80.6432 23.4542C79.0727 23.4542 77.7807 22.9113 76.8179 21.8254C76.3617 21.3343 76.0073 20.7138 75.754 20.0157C75.5007 19.3177 75.3736 18.5938 75.3736 17.8183C75.3736 16.2671 75.7793 14.9744 76.6151 13.8886C77.5274 12.7253 78.7688 12.1306 80.3646 12.1306C81.9352 12.1306 83.1766 12.6736 84.063 13.7853C84.8988 14.8194 85.3297 16.1637 85.3297 17.8441C85.3549 19.4729 84.9493 20.8172 84.1135 21.8513ZM126.724 8.11818H131.107V27.482H126.724V8.11818ZM59.8484 8.09763C57.3404 8.09763 55.2885 8.84733 53.6926 10.3468C52.1979 11.7687 51.438 13.5525 51.438 15.6983C51.438 17.6114 52.0966 19.1885 53.4139 20.4553C52.2739 21.386 51.7167 22.4976 51.7167 23.8162C51.7167 24.6176 51.8179 25.3156 51.9953 25.9102C52.1726 26.5307 52.5273 27.0478 53.0846 27.5131C51.1087 28.6248 50.146 30.4345 50.222 32.9164C50.2727 35.0621 51.1847 36.7684 52.958 38.061C54.7312 39.3537 57.0871 40 59.975 40C62.863 40 65.0162 39.4313 66.4855 38.2938C67.9544 37.1562 68.6892 35.5275 68.6892 33.3817C68.6892 31.2617 68.1067 29.6072 66.9415 28.4438C66.3082 27.8234 65.4975 27.3321 64.5096 26.8926C63.4962 26.479 62.1283 26.117 60.355 25.8326C58.5817 25.5483 57.3151 25.2381 56.5552 24.8503C56.2005 24.6951 55.9725 24.5142 55.8711 24.3332C55.7698 24.1522 55.7191 23.8937 55.7191 23.5576C55.7191 23.2215 55.9471 22.7562 56.3778 22.1615C57.3658 22.4976 58.4551 22.6786 59.6204 22.6786C62.0016 22.6786 63.9522 21.9547 65.4975 20.4811C66.1815 19.8089 66.7135 19.0075 67.0934 18.1027C67.4734 17.1978 67.6506 16.1895 67.6506 15.0779C67.6506 13.9662 67.3974 12.9062 66.8908 11.9238C66.8908 11.9238 66.8908 11.898 66.8655 11.898H68.7145V8.09763H59.8484ZM56.7832 29.0125L57.6951 29.1677C60.2537 29.5555 62.0776 30.0725 63.1163 30.7706C64.0536 31.3652 64.5096 32.1666 64.5096 33.149C64.5096 35.2172 63.0656 36.2255 60.1777 36.2255C58.4804 36.2255 57.1124 35.8635 56.0485 35.1655C55.5672 34.8553 55.1872 34.4675 54.9339 34.028C54.6552 33.5886 54.5285 33.0973 54.5285 32.5027C54.5285 31.908 54.7059 31.2876 55.0605 30.6413C55.4405 29.9691 56.0232 29.452 56.7832 29.0125ZM62.3056 17.9217C61.5963 18.568 60.7603 18.9041 59.823 18.9041C58.5564 18.9041 57.5431 18.5421 56.7578 17.8183C56.4032 17.508 56.1498 17.1202 55.9471 16.7324C55.7698 16.3188 55.6685 15.9052 55.6685 15.4657C55.6685 15.0261 55.7445 14.5866 55.9218 14.1472C56.4792 12.6736 57.7205 11.9497 59.671 11.9497C60.8363 11.9497 61.7737 12.2599 62.4323 12.8804C63.091 13.5008 63.4456 14.3281 63.4456 15.3364C63.4202 16.3188 63.0403 17.1978 62.3056 17.9217ZM150.46 12.3116C150.789 13.1906 150.967 14.2247 150.967 15.3364V27.4097H146.66V26.5048C145.368 27.0995 144.177 27.4097 143.088 27.4097C141.72 27.4097 140.581 27.2804 139.618 27.0219C138.655 26.7634 137.844 26.3756 137.186 25.8844C135.843 24.8503 135.16 23.3766 135.16 21.4635C135.16 19.7572 135.97 18.3095 137.642 17.1719C139.44 15.931 141.898 15.3105 144.989 15.3105L145.697 15.3364C145.77 15.3364 145.843 15.3424 145.919 15.3486C146.002 15.3553 146.087 15.3622 146.179 15.3622C146.264 15.3747 146.343 15.3811 146.419 15.3873C146.502 15.3941 146.581 15.4005 146.66 15.4139C146.559 13.5008 145.749 12.3633 144.229 12.0531C143.747 11.9497 143.19 11.898 142.632 11.898C142.05 11.898 141.492 11.9497 140.96 12.0531C140.403 12.1565 139.871 12.3116 139.365 12.4667C138.25 12.8286 137.414 13.2682 136.932 13.7335L136.882 13.7077L136.35 9.75218C138.402 8.6405 140.682 8.09763 143.139 8.09763C146.964 8.09763 149.396 9.49365 150.46 12.3116ZM146.66 22.8337V20.3518V18.6714C146.331 18.6197 146.002 18.5938 145.672 18.5938H144.963C142.379 18.5938 140.732 19.1885 140.023 20.3518C139.821 20.6879 139.719 21.0499 139.719 21.4377C139.719 21.8254 139.795 22.1615 139.922 22.446C140.074 22.7303 140.301 22.9888 140.606 23.1698C141.214 23.5318 142.126 23.7127 143.316 23.7127C144.507 23.7127 145.622 23.4025 146.66 22.8337ZM167.157 16.6549C167.892 17.0169 168.5 17.4563 168.956 17.9734C169.792 18.9041 170.223 20.145 170.223 21.7479C170.223 23.4284 169.564 24.7985 168.247 25.8585C166.879 26.9702 164.953 27.5131 162.471 27.5131C159.481 27.5131 157.151 26.996 155.504 25.9878V21.2308C155.504 21.205 155.606 21.3084 155.783 21.5152C155.961 21.7221 156.315 21.9547 156.796 22.2649C157.278 22.5752 157.86 22.8337 158.493 23.0664C159.887 23.5576 161.331 23.7903 162.851 23.7903C164.877 23.7903 165.891 23.0923 165.891 21.7221C165.891 21.2826 165.688 20.9465 165.308 20.7396C164.624 20.3777 163.611 20.0933 162.268 19.9124C160.926 19.7055 159.836 19.447 158.975 19.0851C158.114 18.7231 157.404 18.2836 156.872 17.7924C155.884 16.8358 155.377 15.595 155.377 14.0696C155.377 12.2082 156.087 10.7346 157.481 9.67461C158.874 8.61468 160.799 8.09763 163.256 8.09763C165.688 8.09763 167.765 8.79564 169.488 10.2175C169.412 10.5278 169.336 10.838 169.235 11.1224C168.956 11.9238 168.753 12.4926 168.627 12.8286L168.221 13.8886C168.196 13.992 168.171 14.0438 168.171 14.0438C168.145 14.0438 168.044 13.9145 167.892 13.656C167.157 12.777 165.992 12.2082 164.447 11.9238C163.966 11.8204 163.484 11.7687 162.978 11.7687C160.85 11.7687 159.785 12.415 159.785 13.7335C159.785 14.173 159.988 14.535 160.444 14.7676C161.28 15.233 162.42 15.5691 163.864 15.7759C165.308 16.0086 166.397 16.293 167.157 16.6549ZM113.829 8.09763C111.322 8.09763 109.27 8.84733 107.674 10.3468C106.179 11.7687 105.419 13.5525 105.419 15.6983C105.419 17.6114 106.077 19.1885 107.395 20.4553C106.255 21.386 105.698 22.4976 105.698 23.8162C105.698 24.6176 105.799 25.3156 105.976 25.9102C106.154 26.5307 106.508 27.0478 107.066 27.5131C105.09 28.6248 104.127 30.4345 104.203 32.9164C104.254 35.0621 105.166 36.7684 106.939 38.061C108.713 39.3537 111.068 40 113.956 40C116.844 40 118.997 39.4313 120.467 38.2938C121.936 37.1562 122.671 35.5275 122.671 33.3817C122.671 31.2617 122.088 29.6072 120.923 28.4438C120.289 27.8234 119.478 27.3321 118.49 26.8926C117.477 26.479 116.109 26.117 114.336 25.8326C112.563 25.5483 111.297 25.2381 110.537 24.8503C110.181 24.6951 109.953 24.5142 109.852 24.3332C109.751 24.1522 109.7 23.8937 109.7 23.5576C109.7 23.2215 109.928 22.7562 110.359 22.1615C111.347 22.4976 112.436 22.6786 113.601 22.6786C115.983 22.6786 117.933 21.9547 119.478 20.4811C120.163 19.8089 120.695 19.0075 121.074 18.1027C121.455 17.1978 121.632 16.1895 121.632 15.0779C121.632 13.9662 121.379 12.9062 120.872 11.9238C120.872 11.9238 120.872 11.898 120.846 11.898H122.696V8.09763H113.829ZM110.764 29.0125L111.676 29.1677C114.235 29.5555 116.059 30.0725 117.097 30.7706C118.035 31.3652 118.49 32.1666 118.49 33.149C118.49 35.2172 117.047 36.2255 114.159 36.2255C112.461 36.2255 111.094 35.8635 110.03 35.1655C109.548 34.8553 109.168 34.4675 108.915 34.028C108.636 33.5886 108.51 33.0973 108.51 32.5027C108.51 31.908 108.687 31.2876 109.042 30.6413C109.421 29.9691 110.005 29.452 110.764 29.0125ZM116.287 17.9217C115.577 18.568 114.742 18.9041 113.804 18.9041C112.537 18.9041 111.524 18.5421 110.739 17.8183C110.384 17.508 110.131 17.1202 109.928 16.7324C109.751 16.3188 109.649 15.9052 109.649 15.4657C109.649 15.0261 109.725 14.5866 109.903 14.1472C110.46 12.6736 111.701 11.9497 113.652 11.9497C114.817 11.9497 115.755 12.2599 116.413 12.8804C117.072 13.5008 117.426 14.3281 117.426 15.3364C117.401 16.3188 117.022 17.1978 116.287 17.9217Z" fill="white"/>
</svg>
