<svg width="174" height="40" viewBox="0 0 174 40" fill="none" xmlns="http://www.w3.org/2000/svg">
<path d="M1.21143 18.1068L27.7961 0.499548C28.9544 -0.166516 30.3734 -0.166516 31.5318 0.499548L58.1164 18.1068C59.1589 18.6281 59.6223 19.8733 59.101 20.9448C58.8983 21.3792 58.5508 21.7267 58.1164 21.9294L54.5544 24.2751C45.8377 10.5195 27.6513 6.4362 13.8956 15.124C10.2178 17.4697 7.09017 20.5683 4.74447 24.2751L1.15352 21.9294C0.110981 21.3792 -0.294448 20.105 0.226819 19.0624C0.458493 18.657 0.806004 18.3095 1.21143 18.1068ZM29.6205 17.9041C22.0042 17.933 14.9092 21.8425 10.8549 28.3005L16.9653 32.3548C21.1644 25.3756 30.2286 23.1457 37.1789 27.3448C39.235 28.59 40.9436 30.2986 42.1888 32.3548L48.2992 28.3005C44.3028 21.8136 37.2368 17.8751 29.6205 17.9041ZM29.6205 32.6154C26.9273 32.6443 24.4657 34.0923 23.1336 36.438L27.2458 39.1312C27.9119 39.7104 28.7517 40 29.6205 40C30.4893 40 31.358 39.6814 31.9951 39.1312L36.1074 36.438C34.8042 34.0634 32.3137 32.6154 29.6205 32.6154Z" fill="url(#paint0_linear)"/>
<path d="M75.7816 19.9022L82.4422 29.4588H77.7508L72.7119 22.0452V29.4588H68.8893V10.5194H72.7119V18.0778L77.4902 10.5194H81.892L75.7816 19.9022ZM89.016 10.5773H85.1934V29.5167H94.9526V25.6941H88.9291L89.016 10.5773ZM106.247 9.88232L114.211 29.4878H109.925L109.172 27.4316H102.887L102.135 29.4878H97.8196L105.783 9.88232H106.247ZM107.782 23.8986L106.073 19.0045L104.306 23.8986H107.782ZM119.568 21.0896L115.659 10.5773H111.373L119.336 30.1828H119.713L127.677 10.5773H123.362L119.568 21.0896ZM130.601 29.5167H134.424V10.5773H130.601V29.5167ZM149.541 10.5773L145.689 17.1221L141.838 10.5773H137.233L143.807 20.9737V29.5167H147.572V20.9737L154.203 10.5773H149.541ZM173.751 19.6995C173.751 25.1149 169.349 29.5167 163.934 29.5167C158.518 29.5167 154.116 25.1149 154.116 19.6995C154.116 14.2841 158.518 9.88232 163.934 9.88232C169.378 9.91128 173.751 14.2841 173.751 19.6995ZM170.073 19.6995C170.073 16.3113 167.322 13.5891 163.963 13.5891C160.574 13.5891 157.852 16.3402 157.852 19.6995C157.852 23.0588 160.603 25.8099 163.963 25.8099C167.322 25.8099 170.073 23.0878 170.073 19.7285C170.073 19.7285 170.073 19.7285 170.073 19.6995Z" fill="white"/>
<defs>
<linearGradient id="paint0_linear" x1="29.6448" y1="39.9897" x2="29.6448" y2="0.00479041" gradientUnits="userSpaceOnUse">
<stop stop-color="#EFC119"/>
<stop offset="0.3314" stop-color="#92C84E"/>
<stop offset="0.4859" stop-color="#71BF5B"/>
<stop offset="0.7506" stop-color="#15B158"/>
<stop offset="0.903" stop-color="#23AC69"/>
<stop offset="1" stop-color="#23AC69"/>
</linearGradient>
</defs>
</svg>
