<svg width="141" height="40" viewBox="0 0 141 40" fill="none" xmlns="http://www.w3.org/2000/svg">
<path d="M30.1545 7.52546C30.1315 7.31773 29.9469 7.22541 29.8085 7.20233C29.67 7.17925 26.9014 7.15617 26.9014 7.15617C26.9014 7.15617 24.5712 4.89426 24.3405 4.66345C24.1098 4.43265 23.6714 4.50189 23.4868 4.54805C23.4868 4.54805 23.0485 4.68653 22.3102 4.91734C22.1948 4.52497 22.0103 4.04027 21.7565 3.55558C20.9259 1.96301 19.7262 1.13211 18.2496 1.13211C18.1573 1.13211 18.042 1.13211 17.9497 1.15519C17.9035 1.10903 17.8574 1.06286 17.8112 0.993623C17.1652 0.301202 16.3577 -0.0219275 15.3887 0.00115318C13.4969 0.0473146 11.6281 1.40908 10.0823 3.85563C8.99791 5.5636 8.1904 7.7101 7.95969 9.37191C5.79096 10.0413 4.26824 10.5029 4.24517 10.5259C3.1608 10.8722 3.11466 10.8952 2.97623 11.9339C2.86087 12.6955 0 34.8761 0 34.8761L24.0175 39.0306L34.4228 36.4456C34.4228 36.4456 30.1776 7.7101 30.1545 7.52546ZM21.1105 5.28663C20.5568 5.4482 19.9338 5.65592 19.2417 5.86365C19.2186 4.91734 19.1033 3.57866 18.6649 2.42463C20.1184 2.70159 20.8105 4.31724 21.1105 5.28663ZM17.9958 6.25602C16.7269 6.64839 15.3657 7.06384 13.9814 7.50238C14.3736 6.02521 15.1119 4.54805 16.0117 3.57866C16.3577 3.20937 16.8192 2.817 17.3729 2.58619C17.9035 3.67098 17.9958 5.21739 17.9958 6.25602ZM15.4118 1.27059C15.8502 1.27059 16.2193 1.36291 16.5423 1.57064C16.0347 1.82453 15.5272 2.2169 15.0657 2.72467C13.866 4.01719 12.9431 6.00213 12.574 7.94091C11.4204 8.28712 10.313 8.63333 9.27477 8.95646C9.96691 5.90981 12.5048 1.36291 15.4118 1.27059Z" fill="white"/>
<path d="M26.9014 7.15616L26.5531 7.51494L26.6969 7.65447L26.8972 7.65615L26.9014 7.15616ZM26.9014 7.15616L26.5531 7.51491L26.553 7.51483L26.5527 7.51452L26.5515 7.51329L26.5464 7.50843L26.5269 7.48946L26.4525 7.41726L26.1854 7.15782C25.9633 6.94213 25.6647 6.65212 25.3589 6.35488C25.0657 6.06988 24.7644 5.77677 24.5175 5.53614V38.3912L33.8617 36.0697L33.7456 35.2845L33.2644 32.0291C32.8661 29.3341 32.3347 25.7385 31.8026 22.1365C30.8104 15.4195 29.8118 8.65458 29.6736 7.69507C29.6607 7.69457 29.6455 7.69402 29.6278 7.69346C29.542 7.69072 29.4249 7.68797 29.2861 7.68528C29.0089 7.67991 28.6513 7.67487 28.2969 7.67055C27.9427 7.66623 27.5928 7.66263 27.3313 7.66011L27.0162 7.65718L26.9282 7.65641L26.9051 7.65621L26.8992 7.65616L26.8977 7.65615L26.8974 7.65615L26.8973 7.65615L26.9014 7.15616Z" fill="white" stroke="black"/>
<path d="M18.2497 12.5571L17.0499 17.0809C17.0499 17.0809 15.7118 16.4577 14.0968 16.5731C11.7435 16.7116 11.7204 18.1887 11.7435 18.5811C11.8819 20.6122 17.1884 21.0508 17.4883 25.7823C17.719 29.5214 15.5041 32.0602 12.3203 32.268C8.49038 32.4988 6.39087 30.2599 6.39087 30.2599L7.19837 26.8209C7.19837 26.8209 9.32096 28.4135 11.0052 28.3212C12.1126 28.2519 12.5048 27.3518 12.4587 26.7055C12.2972 24.0743 7.95973 24.2128 7.68288 19.8967C7.45216 16.25 9.8516 12.5571 15.135 12.2109C17.2114 12.0262 18.2497 12.5571 18.2497 12.5571Z" fill="#100A1C"/>
<path d="M48.5195 22.2048C47.3198 21.5585 46.6969 21.0046 46.6969 20.2429C46.6969 19.2735 47.5505 18.6503 48.9117 18.6503C50.4806 18.6503 51.8649 19.2966 51.8649 19.2966L52.9723 15.9268C52.9723 15.9268 51.9572 15.1421 48.9809 15.1421C44.8281 15.1421 41.9441 17.5194 41.9441 20.8661C41.9441 22.7587 43.2823 24.2128 45.0818 25.2514C46.5354 26.0823 47.0429 26.6593 47.0429 27.5364C47.0429 28.4366 46.3277 29.1521 44.9665 29.1521C42.9593 29.1521 41.0674 28.1134 41.0674 28.1134L39.8907 31.4832C39.8907 31.4832 41.6442 32.6603 44.5743 32.6603C48.8425 32.6603 51.911 30.56 51.911 26.7747C51.9341 24.7206 50.3883 23.2665 48.5195 22.2048ZM65.5463 15.0959C63.4468 15.0959 61.7857 16.0884 60.5167 17.6117L60.4475 17.5886L62.2702 8.03322H57.5174L52.9031 32.3372H57.6558L59.2478 24.0281C59.8707 20.8892 61.4857 18.9504 63.0085 18.9504C64.0697 18.9504 64.485 19.6659 64.485 20.7045C64.485 21.3508 64.4158 22.1586 64.2774 22.8049L62.4778 32.3141H67.2305L69.0993 22.4817C69.307 21.4431 69.4454 20.1967 69.4454 19.3889C69.4454 16.7346 68.015 15.0959 65.5463 15.0959ZM80.1968 15.0959C74.475 15.0959 70.6913 20.266 70.6913 26.0362C70.6913 29.7291 72.9754 32.6834 77.2436 32.6834C82.85 32.6834 86.6568 27.6518 86.6568 21.7431C86.6337 18.3503 84.6265 15.0959 80.1968 15.0959ZM77.8435 29.0366C76.2285 29.0366 75.5363 27.6518 75.5363 25.9438C75.5363 23.2203 76.9437 18.7657 79.5277 18.7657C81.2119 18.7657 81.7656 20.2198 81.7656 21.6277C81.7656 24.559 80.3583 29.0366 77.8435 29.0366ZM98.7924 15.0959C95.5855 15.0959 93.7628 17.9118 93.7628 17.9118H93.6936L93.9705 15.3498H89.7715C89.5638 17.0809 89.1947 19.689 88.8025 21.6508L85.5032 39.0537H90.256L91.571 32.0141H91.6633C91.6633 32.0141 92.6323 32.6372 94.455 32.6372C100.038 32.6372 103.684 26.9132 103.684 21.12C103.707 17.9579 102.276 15.0959 98.7924 15.0959ZM94.2473 29.1059C93.0015 29.1059 92.2863 28.4135 92.2863 28.4135L93.0707 23.9589C93.6244 21.0046 95.1702 19.0196 96.8314 19.0196C98.2849 19.0196 98.7232 20.3583 98.7232 21.6508C98.7232 24.7206 96.9006 29.1059 94.2473 29.1059ZM110.49 8.28711C108.967 8.28711 107.767 9.4873 107.767 11.0568C107.767 12.4647 108.667 13.4341 110.005 13.4341H110.074C111.551 13.4341 112.843 12.4416 112.866 10.6644C112.866 9.27958 111.943 8.28711 110.49 8.28711ZM103.845 32.3372H108.598L111.828 15.4883H107.029L103.845 32.3372ZM123.917 15.4421H120.618L120.78 14.6574C121.056 13.0417 122.026 11.5876 123.594 11.5876C124.448 11.5876 125.117 11.8185 125.117 11.8185L126.04 8.10246C126.04 8.10246 125.209 7.68701 123.456 7.68701C121.772 7.68701 120.087 8.17171 118.795 9.27958C117.18 10.6644 116.419 12.6494 116.027 14.6574L115.888 15.4421H113.674L112.981 19.0196H115.196L112.682 32.3372H117.434L119.949 19.0196H123.225L123.917 15.4421ZM135.361 15.4883C135.361 15.4883 132.385 22.9895 131.046 27.0748H130.977C130.885 25.7592 129.801 15.4883 129.801 15.4883H124.817L127.678 30.9754C127.747 31.3216 127.701 31.5294 127.586 31.7602C127.032 32.8219 126.109 33.8605 125.002 34.6222C124.102 35.2684 123.11 35.6839 122.302 35.9609L123.617 40C124.586 39.7922 126.571 39.0075 128.278 37.4149C130.447 35.3838 132.454 32.2449 134.507 27.9749L140.321 15.4883H135.361Z" fill="white"/>
</svg>
