<svg id="Layer_1" data-name="Layer 1" xmlns="http://www.w3.org/2000/svg" viewBox="0 0 200.4 66.5"><defs><style>.cls-1{fill:#d3dce6;}</style></defs><title>wordpress</title><path class="cls-1" d="M116.06,27h-7.79v.82c2.43,0,2.83.53,2.83,3.62v5.57c0,3.09-.4,3.66-2.83,3.66-1.88-.26-3.14-1.26-4.88-3.18l-2-2.18c2.7-.47,4.13-2.17,4.13-4.09,0-2.39-2-4.22-5.88-4.22H92v.82c2.44,0,2.83.53,2.83,3.62v5.57c0,3.09-.39,3.66-2.83,3.66v.83h8.67v-.83c-2.44,0-2.83-.57-2.83-3.66V35.49h.74l4.83,6h12.67c6.23,0,8.93-3.31,8.93-7.27S122.29,27,116.06,27ZM97.82,34.13V28.34H99.6a2.67,2.67,0,0,1,2.83,2.92,2.66,2.66,0,0,1-2.83,2.88H97.82Zm18.37,6.06h-.3c-1.57,0-1.79-.39-1.79-2.4V28.34h2.09c4.53,0,5.36,3.31,5.36,5.88S120.72,40.19,116.19,40.19Z"/><path class="cls-1" d="M67.73,35.75l3-8.89c.87-2.57.48-3.31-2.31-3.31v-.87h8.19v.87c-2.74,0-3.4.66-4.49,3.84l-5,14.89h-.57L62.15,28.65,57.62,42.28h-.56L52.22,27.39c-1-3.18-1.74-3.84-4.26-3.84v-.87h9.66v.87c-2.57,0-3.26.61-2.35,3.31l2.92,8.89,4.4-13.07h.83Z"/><path class="cls-1" d="M82.53,42.1c-4.79,0-8.71-3.52-8.71-7.83s3.92-7.8,8.71-7.8,8.71,3.53,8.71,7.8S87.32,42.1,82.53,42.1Zm0-14.28c-4,0-5.4,3.62-5.4,6.45s1.4,6.44,5.4,6.44S88,37.14,88,34.27,86.58,27.82,82.53,27.82Z"/><path class="cls-1" d="M135.74,40.67v.87h-10v-.87c2.92,0,3.44-.74,3.44-5.1v-7c0-4.35-.52-5.05-3.44-5.05v-.87h9c4.48,0,7,2.31,7,5.4s-2.48,5.36-7,5.36H132.3v2.13C132.3,39.93,132.83,40.67,135.74,40.67Zm-1-16.42H132.3v7.58h2.49c2.43,0,3.57-1.7,3.57-3.75S137.22,24.25,134.79,24.25Z"/><path class="cls-1" d="M171.67,37.45l-.22.78c-.39,1.44-.87,2-4,2h-.61c-2.27,0-2.66-.52-2.66-3.62v-2c3.4,0,3.66.31,3.66,2.57h.83V30.65h-.83c0,2.27-.26,2.57-3.66,2.57V28.34h2.4c3.09,0,3.57.53,4,2l.22.83h.69l-.3-4.09h-12.8v.82c2.44,0,2.83.53,2.83,3.62v5.57c0,2.83-.34,3.54-2.26,3.65-1.83-.28-3.08-1.28-4.8-3.17l-2-2.18c2.7-.47,4.14-2.17,4.14-4.09,0-2.39-2.05-4.22-5.88-4.22h-7.67v.82c2.44,0,2.84.53,2.84,3.62v5.57c0,3.09-.4,3.66-2.84,3.66v.83h8.67v-.83c-2.44,0-2.83-.57-2.83-3.66V35.49h.74l4.83,6h17.9l.26-4.09Zm-23.08-3.32V28.34h1.78a2.68,2.68,0,0,1,2.84,2.92,2.67,2.67,0,0,1-2.84,2.88h-1.78Z"/><path class="cls-1" d="M180.51,42.1a6.42,6.42,0,0,1-3.92-1.48,3.14,3.14,0,0,0-.7,1.48h-.82v-6h.87a4.83,4.83,0,0,0,4.92,4.57,2.24,2.24,0,0,0,2.52-2.09c0-1.13-1-2-2.78-2.83l-2.49-1.18a4.73,4.73,0,0,1-3-4.18c0-2.09,2-3.87,4.65-3.87a5.45,5.45,0,0,1,3.4,1.13,2.49,2.49,0,0,0,.57-1.18h.82v5.14h-.91c-.3-2.05-1.44-3.75-3.74-3.75-1.22,0-2.36.7-2.36,1.79s.92,1.74,3,2.7l2.39,1.18a4.54,4.54,0,0,1,2.92,3.92C185.82,40.19,183.43,42.1,180.51,42.1Z"/><path class="cls-1" d="M193.92,42.1A6.42,6.42,0,0,1,190,40.62a3.14,3.14,0,0,0-.7,1.48h-.82v-6h.87a4.83,4.83,0,0,0,4.92,4.57,2.24,2.24,0,0,0,2.52-2.09c0-1.13-1-2-2.78-2.83l-2.48-1.18a4.72,4.72,0,0,1-3.05-4.18c0-2.09,2-3.87,4.66-3.87a5.44,5.44,0,0,1,3.39,1.13,2.49,2.49,0,0,0,.57-1.18h.83v5.14H197c-.3-2.05-1.44-3.75-3.74-3.75-1.22,0-2.35.7-2.35,1.79s.91,1.74,3,2.7l2.39,1.18a4.53,4.53,0,0,1,2.92,3.92C199.23,40.19,196.84,42.1,193.92,42.1Z"/><path class="cls-1" d="M4.41,31.82A19.27,19.27,0,0,0,15.27,49.16L6.08,24A19.21,19.21,0,0,0,4.41,31.82Z"/><path class="cls-1" d="M36.69,30.84a10.15,10.15,0,0,0-1.59-5.31c-1-1.59-1.89-2.93-1.89-4.52a3.33,3.33,0,0,1,3.23-3.42h.25A19.28,19.28,0,0,0,7.58,21.23l1.24,0c2,0,5.13-.25,5.13-.25a.8.8,0,0,1,.13,1.59s-1.05.12-2.21.18l7,20.88L23.11,31l-3-8.23c-1-.06-2-.18-2-.18A.8.8,0,0,1,18.21,21s3.18.24,5.07.24S28.42,21,28.42,21a.8.8,0,0,1,.12,1.59s-1,.12-2.2.18l7,20.72,1.92-6.43C36.06,34.41,36.69,32.49,36.69,30.84Z"/><path class="cls-1" d="M24,33.5,18.24,50.3a19.13,19.13,0,0,0,5.44.79A19.37,19.37,0,0,0,30.08,50a2.29,2.29,0,0,1-.14-.27Z"/><path class="cls-1" d="M40.59,22.57a15.19,15.19,0,0,1,.13,2,18.14,18.14,0,0,1-1.47,6.9l-5.88,17a19.27,19.27,0,0,0,7.22-25.9Z"/><path class="cls-1" d="M23.68,9.35A22.47,22.47,0,1,0,46.15,31.82,22.5,22.5,0,0,0,23.68,9.35Zm0,43.9A21.44,21.44,0,1,1,45.11,31.82,21.46,21.46,0,0,1,23.68,53.25Z"/></svg>