<svg id="Layer_1" data-name="Layer 1" xmlns="http://www.w3.org/2000/svg" viewBox="0 0 146 148"><defs><style>.cls-1{fill:#fff;}.cls-2{fill:#94c942;}.cls-3{fill:#73a032;}.cls-4{fill:#b1e357;}</style></defs><title>Cog_Wheels</title><g id="Page-1"><g id="Cog_Wheels" data-name="Cog Wheels"><path id="Shape" class="cls-1" d="M142.5,32.6l-3.1-.4a3.92,3.92,0,0,1-3.2-2.6c-.4-1-.8-2-1.3-3a4,4,0,0,1,.4-4.1l1.9-2.5a4,4,0,0,0-.4-5.2l-5.3-5.3a4,4,0,0,0-5.2-.4L123.8,11a4,4,0,0,1-4.1.4c-1-.5-2-.9-3-1.3a3.92,3.92,0,0,1-2.6-3.2l-.5-3.1a4,4,0,0,0-4-3.4h-7.5a4.08,4.08,0,0,0-4,3.4l-.5,3.1A3.92,3.92,0,0,1,95,10.1c-1,.4-2,.8-3,1.3a4,4,0,0,1-4.1-.4L85.4,9.1a4,4,0,0,0-5.2.4l-5.3,5.3a4,4,0,0,0-.4,5.2l1.9,2.5a4,4,0,0,1,.4,4.1c-.5,1-.9,2-1.3,3a3.92,3.92,0,0,1-3.2,2.6l-3.1.4a4,4,0,0,0-3.4,4v7.5a2.2,2.2,0,0,0,.1.8c0,.1.1.2.1.3s.1.2.1.3l.3.6c0,.1.1.1.1.2h0a.1.1,0,0,0,.1.1c.1.1.2.2.2.3a1,1,0,0,0,.5.4h0c.1.1.2.1.3.2s.2.1.3.2a6.94,6.94,0,0,0,1.3.5l2.8.4.3.1a4.33,4.33,0,0,1,.5.1c.2.1.3.1.5.2h0c.1,0,.2.1.3.2h0c.1,0,.1.1.2.1h0c.1.1.3.2.4.3s.3.2.4.4.2.3.3.4a.1.1,0,0,0,.1.1c0,.1.1.1.1.2s.1.1.1.2.2.3.2.5,0,.1.1.2c.2.5.3.9.5,1.3h0a10.09,10.09,0,0,0,.7,1.5c.1.1.1.3.2.4a.6.6,0,0,1,.1.4c0,.1.1.3.1.4a3.86,3.86,0,0,1-.3,2.1c-.1.2-.2.3-.3.5a.22.22,0,0,1-.2.2l-1.9,2.5a2.09,2.09,0,0,0-.4.6c-.1.2-.1.3-.2.5s-.1.2-.1.4a4.3,4.3,0,0,0,0,1.6v.1a3,3,0,0,0,.4,1c.1.1.1.2.2.4a2.65,2.65,0,0,0,.5.6L75.9,67l4.2,4.2a4,4,0,0,0,5.2.4l2.5-1.9a4,4,0,0,1,4.1-.4c.5.2,1,.5,1.5.7s.7.3,1.1.4c.1,0,.1,0,.2.1a.37.37,0,0,0,.3.1c.1,0,.2.1.3.1s.2.1.3.1a1.38,1.38,0,0,1,.4.3.1.1,0,0,1,.1.1c.1.1.3.2.4.3l.3.3c0,.1.1.1.1.2l.2.2c.1.2.2.3.3.5s.1.1.1.2h0a.6.6,0,0,1,.1.4c0,.1.1.3.1.4v.1l.5,3.1a3.36,3.36,0,0,0,.5,1.4,1.38,1.38,0,0,0,.3.4c.1.1.2.3.3.4s.2.2.3.2a2.09,2.09,0,0,0,.6.4l.6.3a3.19,3.19,0,0,0,1.4.3H110a3.85,3.85,0,0,0,3.6-3.4l.5-3.1a3.92,3.92,0,0,1,2.6-3.2c1-.4,2-.8,3-1.3a4,4,0,0,1,4.1.4l2.5,1.9a4,4,0,0,0,5.2-.4l5.3-5.3a4,4,0,0,0,.4-5.2l-1.9-2.5a4,4,0,0,1-.4-4.1c.5-1,.9-2,1.3-3a3.92,3.92,0,0,1,3.2-2.6l3.1-.5a4,4,0,0,0,3.4-4V36.5A4,4,0,0,0,142.5,32.6ZM105.8,54.3a14,14,0,1,1,14-14A14,14,0,0,1,105.8,54.3Z"/><path class="cls-2" d="M111.1,81.2a8.34,8.34,0,0,0-1.2-.8h-7.8a3.19,3.19,0,0,1-1.4-.3l-.6-.3c-.2-.1-.4-.3-.6-.4s-.2-.1-.3-.2-.2-.3-.3-.4-.2-.3-.3-.4a5.78,5.78,0,0,1-.5-1.4l-.4-3.1v-.1c0-.1-.1-.3-.1-.4s-.1-.3-.1-.4h0c0-.1-.1-.1-.1-.2s-.2-.3-.3-.5-.1-.1-.2-.2-.1-.1-.1-.2l-.3-.3a1.38,1.38,0,0,0-.4-.3.1.1,0,0,1-.1-.1c-.1-.1-.3-.2-.4-.3s-.2-.1-.3-.1-.2-.1-.3-.1-.2-.1-.3-.1-.1,0-.2-.1c-.4-.1-.7-.3-1.1-.4a10.09,10.09,0,0,1-1.5-.7,4,4,0,0,0-4.1.4l-2.5,1.9a4,4,0,0,1-5.2-.4l-4.2-4.2L74.8,66a2.65,2.65,0,0,1-.5-.6c-.1-.1-.1-.2-.2-.4a3,3,0,0,1-.4-1v-.1a4.3,4.3,0,0,1,0-1.6c0-.1.1-.3.1-.4s.1-.3.2-.5a2.09,2.09,0,0,1,.4-.6l1.9-2.5c.1-.1.1-.2.2-.2.1-.2.2-.3.3-.5a3.86,3.86,0,0,0,.3-2.1.6.6,0,0,0-.1-.4c0-.1-.1-.3-.1-.4s-.1-.3-.2-.4c-.2-.5-.5-1-.7-1.5h0c-.2-.4-.3-.9-.5-1.3,0-.1,0-.1-.1-.2s-.1-.3-.2-.5-.1-.1-.1-.2-.1-.1-.1-.2a.1.1,0,0,0-.1-.1c-.1-.1-.2-.3-.3-.4l-.4-.4a1.38,1.38,0,0,0-.4-.3h0c-.1,0-.1-.1-.2-.1h0c-.1-.1-.2-.1-.3-.2h0c-.2-.1-.3-.1-.5-.2a.9.9,0,0,0-.5-.1H72l-2.8-.4a5,5,0,0,1-1.3-.4c-.1,0-.2-.1-.3-.2s-.2-.1-.3-.2h0c-.2-.1-.3-.3-.5-.4s-.2-.2-.2-.3a.1.1,0,0,0-.1-.1h0c0-.1-.1-.1-.1-.2l-.3-.6c0-.1-.1-.2-.1-.3s-.1-.2-.1-.3-.1-.5-.1-.8V36.2a5.44,5.44,0,0,0-4-1.7H51.3a5.7,5.7,0,0,0-5.6,4.8l-.6,4.4a5.72,5.72,0,0,1-3.7,4.5A32.51,32.51,0,0,0,37.1,50a5.75,5.75,0,0,1-5.8-.5l-3.6-2.7a5.75,5.75,0,0,0-7.4.5l-7.4,7.4a5.64,5.64,0,0,0-.5,7.4l2.7,3.6a5.33,5.33,0,0,1,.5,5.8c-.7,1.4-1.2,2.8-1.8,4.3a5.55,5.55,0,0,1-4.5,3.7l-4.4.6A5.61,5.61,0,0,0,.1,85.7V96.2a5.61,5.61,0,0,0,4.8,5.6l4.4.6a5.72,5.72,0,0,1,4.5,3.7,32.51,32.51,0,0,0,1.8,4.3,5.75,5.75,0,0,1-.5,5.8l-2.7,3.6a5.47,5.47,0,0,0-1.1,3.6,5.68,5.68,0,0,0,1.6,3.7l7.4,7.5a5.64,5.64,0,0,0,7.4.5l3.6-2.6a5.54,5.54,0,0,1,5.8-.6c.7.3,1.4.7,2.2,1h0c.7.3,1.4.5,2.1.8a6,6,0,0,1,2.7,2h0a5.09,5.09,0,0,1,1,2.5l.6,4.4a6.41,6.41,0,0,0,1.4,3,5.73,5.73,0,0,0,4.2,1.9H61.8a5.61,5.61,0,0,0,5.6-4.8l.6-4.4a5.55,5.55,0,0,1,3.7-4.5A32.51,32.51,0,0,0,76,132a5.38,5.38,0,0,1,3.3-.5,4.72,4.72,0,0,1,2.5,1.1l3.6,2.6a5.28,5.28,0,0,0,4.3,1,5.22,5.22,0,0,0,3-1.6l7.4-7.5a5.67,5.67,0,0,0,.6-7.4L98,116.1a6.44,6.44,0,0,1-1.1-2.7,5.66,5.66,0,0,1,.5-3.1c.7-1.4,1.2-2.8,1.8-4.3a5.55,5.55,0,0,1,4.5-3.7l4.4-.6a5.61,5.61,0,0,0,4.8-5.6V85.6A5.73,5.73,0,0,0,111.1,81.2ZM56.5,110.4A19.67,19.67,0,0,1,36.8,90.7a20,20,0,0,1,5.9-14.1A19.41,19.41,0,0,1,56.5,71a19.7,19.7,0,0,1,0,39.4Z"/><path class="cls-3" d="M73.3,55.4l-3.1-.5a4,4,0,0,1-3.4-4V46.6a4.06,4.06,0,0,0,2.4,1.3l2.8.4h.3a4.42,4.42,0,0,1,1.6.6,4.47,4.47,0,0,1,1.6,2c.4,1,.8,2,1.3,3a4.14,4.14,0,0,1-.2,3.9A4.58,4.58,0,0,0,73.3,55.4Z"/><path class="cls-3" d="M113,85.5v1.1a4.07,4.07,0,0,1-2.4.8h-7.5a4.08,4.08,0,0,1-4-3.4l-.5-3.1A3.92,3.92,0,0,0,96,77.7c-1-.4-2-.8-3-1.3a3.83,3.83,0,0,0-4.1.4l-2.5,1.9a4,4,0,0,1-5.2-.4L75.9,73a4,4,0,0,1-.4-5.2l.5-.6,4.2,4.2a4,4,0,0,0,5.2.4l2.5-1.9a4,4,0,0,1,4.1-.4c1,.5,2,.9,3,1.3a4.52,4.52,0,0,1,2.3,2,4.18,4.18,0,0,1,.4,1v.1l.4,3.1a4,4,0,0,0,4,3.4h7.8a8.34,8.34,0,0,1,1.2.8A6.13,6.13,0,0,1,113,85.5Z"/><path class="cls-4" d="M142.5,32.6l-3.1-.4a3.92,3.92,0,0,1-3.2-2.6c-.4-1-.8-2-1.3-3a4,4,0,0,1,.4-4.1l1.9-2.5a4,4,0,0,0-.4-5.2l-5.3-5.3a4,4,0,0,0-5.2-.4L123.8,11a4,4,0,0,1-4.1.4c-1-.5-2-.9-3-1.3a3.92,3.92,0,0,1-2.6-3.2l-.5-3.1a4,4,0,0,0-4-3.4h-7.5a4.08,4.08,0,0,0-4,3.4l-.5,3.1A3.92,3.92,0,0,1,95,10.1c-1,.4-2,.8-3,1.3a4,4,0,0,1-4.1-.4L85.4,9.1a4,4,0,0,0-5.2.4l-5.3,5.3a4,4,0,0,0-.4,5.2l1.9,2.5a4,4,0,0,1,.4,4.1c-.5,1-.9,2-1.3,3a3.92,3.92,0,0,1-3.2,2.6l-3.1.4a4,4,0,0,0-3.4,4v7.5a2.2,2.2,0,0,0,.1.8c0,.1.1.2.1.3s.1.2.1.3l.3.6c0,.1.1.1.1.2h0a.1.1,0,0,0,.1.1c.1.1.2.2.2.3a1,1,0,0,0,.5.4h0c.1.1.2.1.3.2s.2.1.3.2a6.94,6.94,0,0,0,1.3.5l2.8.4.3.1a4.33,4.33,0,0,1,.5.1c.2.1.3.1.5.2h0c.1,0,.2.1.3.2h0c.1,0,.1.1.2.1h0c.1.1.3.2.4.3s.3.2.4.4.2.3.3.4a.1.1,0,0,0,.1.1c0,.1.1.1.1.2s.1.1.1.2.2.3.2.5,0,.1.1.2c.2.5.3.9.5,1.3h0a10.09,10.09,0,0,0,.7,1.5c.1.1.1.3.2.4a.6.6,0,0,1,.1.4c0,.1.1.3.1.4a3.86,3.86,0,0,1-.3,2.1c-.1.2-.2.3-.3.5a.22.22,0,0,1-.2.2l-1.9,2.5a2.09,2.09,0,0,0-.4.6c-.1.2-.1.3-.2.5s-.1.2-.1.4a4.3,4.3,0,0,0,0,1.6v.1a3,3,0,0,0,.4,1c.1.1.1.2.2.4a2.65,2.65,0,0,0,.5.6L75.9,67l4.2,4.2a4,4,0,0,0,5.2.4l2.5-1.9a4,4,0,0,1,4.1-.4c.5.2,1,.5,1.5.7s.7.3,1.1.4c.1,0,.1,0,.2.1a.37.37,0,0,0,.3.1c.1,0,.2.1.3.1s.2.1.3.1a1.38,1.38,0,0,1,.4.3.1.1,0,0,1,.1.1c.1.1.3.2.4.3l.3.3c0,.1.1.1.1.2l.2.2c.1.2.2.3.3.5s.1.1.1.2h0a.6.6,0,0,1,.1.4c0,.1.1.3.1.4v.1l.5,3.1a3.36,3.36,0,0,0,.5,1.4,1.38,1.38,0,0,0,.3.4c.1.1.2.3.3.4s.2.2.3.2a2.09,2.09,0,0,0,.6.4l.6.3a3.19,3.19,0,0,0,1.4.3H110a3.85,3.85,0,0,0,3.6-3.4l.5-3.1a3.92,3.92,0,0,1,2.6-3.2c1-.4,2-.8,3-1.3a4,4,0,0,1,4.1.4l2.5,1.9a4,4,0,0,0,5.2-.4l5.3-5.3a4,4,0,0,0,.4-5.2l-1.9-2.5a4,4,0,0,1-.4-4.1c.5-1,.9-2,1.3-3a3.92,3.92,0,0,1,3.2-2.6l3.1-.5a4,4,0,0,0,3.4-4V36.5A4,4,0,0,0,142.5,32.6ZM105.8,54.3a14,14,0,1,1,14-14A14,14,0,0,1,105.8,54.3Z"/></g></g></svg>