<svg id="Layer_1" data-name="Layer 1" xmlns="http://www.w3.org/2000/svg" viewBox="0 0 122 150"><defs><style>.cls-1{fill:#4988fd;}.cls-2{fill:#3973f4;}.cls-3{fill:#94c942;}</style></defs><title>Earth</title><g id="Page-1"><g id="Earth"><path id="Shape" class="cls-1" d="M122,59.4A52.11,52.11,0,0,1,115.9,84a53.24,53.24,0,0,1-18.3,19.7A52.43,52.43,0,1,1,53.7,9.4a52.54,52.54,0,0,1,67.4,40.1A63.92,63.92,0,0,1,122,59.4Z"/><path class="cls-2" d="M122,59.4A52.11,52.11,0,0,1,115.9,84a53.24,53.24,0,0,1-18.3,19.7A52.43,52.43,0,0,1,24.8,86.6a65.87,65.87,0,0,0,33,8.8A66.41,66.41,0,0,0,93.3,85.1a68,68,0,0,0,23.2-25A67.22,67.22,0,0,0,121,49.4,55.58,55.58,0,0,1,122,59.4Z"/><path class="cls-3" d="M69.6,128.6A69.18,69.18,0,0,1,33,.7a3.53,3.53,0,0,1,4.8,1.1,3.53,3.53,0,0,1-1.1,4.8,62.21,62.21,0,0,0,32.9,115,61.78,61.78,0,0,0,25.1-5.3,3.49,3.49,0,1,1,2.8,6.4A68.49,68.49,0,0,1,69.6,128.6Z"/><path class="cls-3" d="M69.7,140.9a3.54,3.54,0,0,1-3.5-3.5V125.1a3.5,3.5,0,0,1,7,0v12.3A3.54,3.54,0,0,1,69.7,140.9Z"/><path class="cls-3" d="M53.8,138.1a6.37,6.37,0,0,0-3.2,3.8L48,149.6H90.4l-2.6-7.7a6.66,6.66,0,0,0-6.4-4.6L57,137.2A11.72,11.72,0,0,0,53.8,138.1Z"/><path class="cls-3" d="M80.8,57.4c-5.6,7.7-9.2,23-15.3,19.9S55.8,62,56.3,51.2,52.2,38.9,46.1,31.3c-5.3-6.7-4.1-7.9,7.7-21.8a52.8,52.8,0,0,1,39,3c0,6.7.7,14.9,3.4,20.9C100.3,42.5,86.5,49.7,80.8,57.4Z"/><path class="cls-3" d="M114.6,84.4a.56.56,0,0,1,.5.9,52.58,52.58,0,0,1-17.6,18.4c-.1.1-1.4-.9-1.6-1-.5-.3-1-.7-1.5-1-.9-.6-1.8-1.3-2.7-2a24,24,0,0,1-3.9-3.9c-1.7-2.3-2.4-5-1.2-7.7h0a3.91,3.91,0,0,1,3.3-2.2Z"/></g></g></svg>