<svg id="Layer_1" data-name="Layer 1" xmlns="http://www.w3.org/2000/svg" viewBox="0 0 123 147"><defs><style>.cls-1{fill:#21d3ac;}.cls-2{fill:#73a032;}.cls-3{fill:#94c942;}</style></defs><title>Charts_2</title><g id="Page-1"><g id="Charts"><path id="Shape" class="cls-1" d="M121.9,28.8,109.2,3.1A4.64,4.64,0,0,0,103,1L77.3,13.7A4.63,4.63,0,1,0,81.4,22l15.8-7.8C80.7,56.7,27,82.4,4.4,87.7A4.76,4.76,0,0,0,.9,93.3a4.69,4.69,0,0,0,4.5,3.6,4.1,4.1,0,0,0,1.1-.1c25.2-5.9,81.6-32.9,99.4-79.5L113.6,33a4.66,4.66,0,0,0,4.2,2.6,4.55,4.55,0,0,0,2-.5A4.78,4.78,0,0,0,121.9,28.8Z"/><path class="cls-2" d="M121.9,28.8,109.2,3.1A4.64,4.64,0,0,0,103,1L77.3,13.7A4.63,4.63,0,1,0,81.4,22l15.8-7.8C80.7,56.7,27,82.4,4.4,87.7A4.76,4.76,0,0,0,.9,93.3a4.69,4.69,0,0,0,4.5,3.6,4.1,4.1,0,0,0,1.1-.1c25.2-5.9,81.6-32.9,99.4-79.5L113.6,33a4.66,4.66,0,0,0,4.2,2.6,4.55,4.55,0,0,0,2-.5A4.78,4.78,0,0,0,121.9,28.8Z"/><path class="cls-3" d="M24.5,146.3H4.8a3.37,3.37,0,0,1-3.4-3.4V121.1a3.37,3.37,0,0,1,3.4-3.4H24.5a3.37,3.37,0,0,1,3.4,3.4v21.8A3.5,3.5,0,0,1,24.5,146.3Z"/><path class="cls-3" d="M68.1,146.3H48.4a3.37,3.37,0,0,1-3.4-3.4V95.7a3.37,3.37,0,0,1,3.4-3.4H68.1a3.37,3.37,0,0,1,3.4,3.4v47.2A3.5,3.5,0,0,1,68.1,146.3Z"/><path class="cls-3" d="M111.7,146.3H92a3.37,3.37,0,0,1-3.4-3.4v-82A3.37,3.37,0,0,1,92,57.5h19.7a3.37,3.37,0,0,1,3.4,3.4v82A3.5,3.5,0,0,1,111.7,146.3Z"/></g></g></svg>