<svg id="Layer_1" data-name="Layer 1" xmlns="http://www.w3.org/2000/svg" xmlns:xlink="http://www.w3.org/1999/xlink" viewBox="0 0 902.57 748.96"><defs><style>.cls-1{fill:#3f3d56;}.cls-2{fill:#fff;}.cls-3{fill:#e6e8ec;}.cls-4{fill:#94c942;}.cls-5{fill:url(#linear-gradient);}.cls-6{fill:#feb9b9;}.cls-7{fill:#2f2e41;}.cls-8{opacity:0.1;isolation:isolate;}.cls-9{fill:#efefef;}</style><linearGradient id="linear-gradient" x1="-100.4" y1="251.91" x2="-100.4" y2="252.92" gradientTransform="matrix(1.22, 0, 0, -0.29, 331.43, 456.73)" gradientUnits="userSpaceOnUse"><stop offset="0" stop-color="gray" stop-opacity="0.25"/><stop offset="0.54" stop-color="gray" stop-opacity="0.12"/><stop offset="1" stop-color="gray" stop-opacity="0.1"/></linearGradient></defs><title>weblime-results-green</title><g id="Group_22" data-name="Group 22"><g id="Group_2" data-name="Group 2"><rect id="Rectangle_76" data-name="Rectangle 76" class="cls-1" x="636.09" y="169.56" width="10.99" height="90.6" rx="2.29"/><rect id="Rectangle_80" data-name="Rectangle 80" class="cls-1" x="274.25" width="367.78" height="747.46" rx="38.99"/><path id="Path_176" data-name="Path 176" class="cls-2" d="M590.84,19.47H548.65v5.07a24.05,24.05,0,0,1-24,24.05H390.42a24,24,0,0,1-24.06-24V19.47h-39.5a29.21,29.21,0,0,0-29.21,29.21V698.83A29.21,29.21,0,0,0,326.86,728h264a29.21,29.21,0,0,0,29.21-29.21V48.73a29.22,29.22,0,0,0-29.16-29.26Z"/><rect id="Rectangle_81" data-name="Rectangle 81" class="cls-3" x="422.66" y="22.32" width="51.36" height="10.42" rx="3.87"/><circle id="Ellipse_5" data-name="Ellipse 5" class="cls-3" cx="487.71" cy="27.53" r="5.92"/><circle id="Ellipse_11" data-name="Ellipse 11" class="cls-2" cx="460.38" cy="382.9" r="69.57"/><path id="Path_222" data-name="Path 222" class="cls-4" d="M551.89,373.19a93,93,0,1,1-93-93,93,93,0,0,1,93,93ZM448.16,422.41l69-69a6,6,0,0,0,0-8.47h0l-8.48-8.43a6,6,0,0,0-8.46,0l0,0-56.25,56.26-26.27-26.33a6,6,0,0,0-8.49,0L400.67,375a6,6,0,0,0,0,8.48l39,39a6,6,0,0,0,8.48,0h0Z"/></g><g id="Group_1" data-name="Group 1"><rect id="Rectangle_77" data-name="Rectangle 77" class="cls-1" x="282.51" y="147.36" width="5.54" height="26.81" rx="2.29"/><rect id="Rectangle_78" data-name="Rectangle 78" class="cls-1" x="282.31" y="196.45" width="6.25" height="46.67" rx="2.29"/><rect id="Rectangle_79" data-name="Rectangle 79" class="cls-1" x="282.41" y="259.45" width="5.95" height="47.07" rx="2.29"/><path id="Path_190" data-name="Path 190" class="cls-5" d="M208.74,383.91a1,1,0,0,0,1.22.16A4.59,4.59,0,0,1,208.74,383.91Z"/><path id="Path_192" data-name="Path 192" class="cls-6" d="M254.7,401.89l-1.2,6.54-.92,5-1.69,9.14L234.57,434s-1.48-1.26-3.9-3.24C224,425.25,209.91,414,199.58,408a35,35,0,0,0-8.54-3.93Z"/><path id="Path_194" data-name="Path 194" class="cls-1" d="M242.73,406.75s19,3.27,20.15-4.86-9.8-12.53-19-13.07-64.77,3.27-64.77,3.27-9.79,13.06,25.58,15.24Z"/><rect id="Rectangle_82" data-name="Rectangle 82" class="cls-7" x="184.76" y="138.44" width="99.6" height="118.1"/><rect id="Rectangle_83" data-name="Rectangle 83" class="cls-8" x="184.76" y="138.98" width="99.6" height="118.1"/><path id="Path_198" data-name="Path 198" class="cls-6" d="M68,340.62c-1.64.42-3.74,2-6.07,4.3-10,9.93-24.41,33.26-24.41,33.26-18.38-21.9,2-39.2,10.63-45.14,2.11-1.44,3.52-2.23,3.52-2.23Z"/><path id="Path_199" data-name="Path 199" class="cls-6" d="M253.61,175.72s4.9,34.29,21.77,42.45-21.77,23.42-21.77,23.42L200.82,222s29.94-9.8,24-38.64Z"/><path id="Path_200" data-name="Path 200" class="cls-6" d="M197,382l-1.2,6.52-1,5-1.68,9.15-16.33,11.42s-1.47-1.25-3.9-3.23c-6.69-5.51-20.75-16.73-31.1-22.76a34.45,34.45,0,0,0-8.54-3.93Z"/><path id="Path_202" data-name="Path 202" class="cls-7" d="M182.88,390s17.09.12,18.12-8-9.31-12.52-18.12-13.07-62.29,3.52-62.29,3.52S113,387.84,146.65,390Z"/><path id="Path_204" data-name="Path 204" class="cls-1" d="M302.69,518.12,300.46,517l-2-2.53-26.34-33.39v.58c-.17,5.58-2.07,49.77-16.86,53.85-15.78,4.35-34.82,5.44-43.5-23.95S187.21,418,170.93,414.14l24.22-19.87s16,18.76,22.58,36.72c-.25-1.11-11.32-52.87-2.23-62H295s12.27,34.94,20.68,52.25c6.55,13.44,16.37,45.22,22.7,66.72C344.61,509.17,322.61,527.92,302.69,518.12Z"/><path id="Path_205" data-name="Path 205" class="cls-8" d="M300.42,378.72c-12.27,7.26-66.13,4.31-83.65,3.13L212,381.5c-.52,0,.08-.29.08-.29l.49-4.94,13.06-33.19,69.93-40.56c-1.42,4.27-1.89,10.81-1.77,18.29C294.11,344.86,300.42,378.72,300.42,378.72Z"/><path id="Path_206" data-name="Path 206" class="cls-9" d="M300.42,377.08c-12.27,7.26-66.13,4.31-83.65,3.13l-4.77-.34-.79-.06.87-.23,4.3-1.11,9.25-37,69.93-40.54c-1.42,4.27-1.89,10.81-1.77,18.29C294.11,343.23,300.42,377.08,300.42,377.08Z"/><path id="Path_207" data-name="Path 207" class="cls-8" d="M293.74,319.19c-14.22,3.28-45.52,12.9-57.54,36.13-8,15.47-14.77,22.11-19.47,24.89l-4.78-.34a2.45,2.45,0,0,0,.08-.29l4.3-1.11,9.25-37,69.93-40.54C294.11,305.17,293.63,311.7,293.74,319.19Z"/><path id="Path_208" data-name="Path 208" class="cls-8" d="M51.7,330.83,68,340.62c-1.64.42-3.74,2-6.07,4.3-1.36-4-9.9-9.52-13.78-11.88C50.28,331.62,51.7,330.83,51.7,330.83Z"/><path id="Path_209" data-name="Path 209" class="cls-8" d="M209,380.51a1,1,0,0,1-1.11-.16A3.77,3.77,0,0,0,209,380.51Z"/><path id="Path_210" data-name="Path 210" class="cls-4" d="M246,216s-14.7,1.63-25-9.25c0,0-43.5,12.52-58.24,40.82S47.84,331.38,47.84,331.38s17.42,9.79,15.78,14.69L129.49,308s23.42-16.87,29.92-20.68,42.46-27.22,50.08,36.46,0,56.06,0,56.06,10.88,3.81,26.67-26.67,64.75-37.56,64.75-37.56l2.72-32.1s9.72-21.28,2.24-30.11a19,19,0,0,1-4.37-9.21c-1.23-8.16,0-21.74,17.34-33,26.66-17.42,37-31.56,37-31.56s.55-10.35-15.78-15.25-82.72-31.56-82.72-31.56L255.11,142l52.38,37s-26.12,21.19-46.84,20.68C260.65,199.67,264.5,215.45,246,216Z"/><path id="Path_211" data-name="Path 211" class="cls-8" d="M256.08,190.64a104.24,104.24,0,0,1-3-13.29L224.22,185a31.56,31.56,0,0,1-.66,16.64A31,31,0,0,0,256.08,190.64Z"/><circle id="Ellipse_10" data-name="Ellipse 10" class="cls-6" cx="232.12" cy="170.01" r="31.02"/><path id="Path_213" data-name="Path 213" class="cls-8" d="M265.86,419.81s18,35.38,12.51,46.26"/><path id="Path_221" data-name="Path 221" class="cls-7" d="M248.61,98.37c8.61,1,16.79,4.67,25.27,6.69a12.48,12.48,0,0,0,6.53.25c3.29-1,6-4.46,9.38-4.36,2.1.06,4,1.49,5.69,2.86a70.61,70.61,0,0,1,7.81,7c5.84,6.35,9.47,14.89,14.8,21.8s12.93,15,20.51,11.83c-5.16,20.08-21.23,32.64-39.48,33.89-7.29.5-14.75-1-21.8,1.11a18.93,18.93,0,0,1-5.5,1.34c-4.06,0-7.33-3.73-9.86-7.35-5.93-8.52-10.63-18.19-17.31-26-2.23-2.57-4.8-5-7.93-5.48s-6,1-8.76,2.46c-4.59,2.38-9.27,4.83-12.83,8.92s-5.8,10.14-4.33,15.62c.8,3,2.6,5.64,2.64,8.74.06,5-4.31,8.57-5.17,13.39a51.57,51.57,0,0,0-.21,6.09c-.38,6.6-4.7,12-9.2,16.16-1.76,1.6-3.7,3.34-4.22,5.83-.34,1.71,0,3.5-.22,5.23-.66,4.29-4.93,6.46-8.71,7a25.15,25.15,0,0,1-13.07-1.55c5.28-2.5,8.54-9.62,7.31-16-1.68-8.84-10.56-15.18-9.8-24.17a28.18,28.18,0,0,1,2.46-8,72.71,72.71,0,0,0,4.19-15.06c.67-4,1-8.21-.25-12-1.12-3.45-3.45-6.21-5.43-9.13a51.79,51.79,0,0,1-6.27-12.86,9,9,0,0,1-.6-4.26A8.7,8.7,0,0,1,167,124c4.85-5.1,10-10.39,16.54-11.85a36.92,36.92,0,0,1,9.39-.36,111.25,111.25,0,0,0,16.32-.69c4.46-.53,12-.46,15.78-3.35,3.52-2.7,5.51-6.09,9.85-7.81a29.15,29.15,0,0,1,13.76-1.57Z"/></g><ellipse id="Ellipse_9" data-name="Ellipse 9" class="cls-4" cx="824.96" cy="737.99" rx="44.99" ry="7.61"/><path id="Path_179" data-name="Path 179" class="cls-4" d="M843.57,725.55a13.14,13.14,0,0,0,4.29-6.48c.56-2.56-.54-5.6-3-6.59-2.76-1.06-5.7.86-7.93,2.78s-4.78,4.13-7.71,3.72a11.71,11.71,0,0,0,3.64-11,4.67,4.67,0,0,0-1-2.24c-1.52-1.63-4.3-.94-6.12.36-5.82,4.08-7.44,12-7.48,19.1-.59-2.56-.09-5.24-.11-7.83s-.73-5.6-2.95-7a9,9,0,0,0-4.48-1.06c-2.62-.1-5.53.17-7.32,2.08-2.24,2.38-1.63,6.36.29,9s4.87,4.26,7.58,6.06a16.85,16.85,0,0,1,5.4,5.16,5.43,5.43,0,0,1,.4.93h16.35a46.29,46.29,0,0,0,10.16-7Z"/><ellipse id="Ellipse_9-2" data-name="Ellipse 9-2" class="cls-9" cx="213.21" cy="743.93" rx="29.69" ry="5.02"/><path id="Path_179-2" data-name="Path 179-2" class="cls-9" d="M225.49,735.72a8.61,8.61,0,0,0,2.83-4.27,3.81,3.81,0,0,0-2-4.35c-1.82-.7-3.76.56-5.23,1.84s-3.16,2.72-5.08,2.45a7.79,7.79,0,0,0,2.4-7.25,3,3,0,0,0-.68-1.47c-1-1.08-2.83-.62-4,.23-3.84,2.7-4.91,7.92-4.93,12.61-.39-1.69-.06-3.46-.07-5.17s-.48-3.69-2-4.6a5.77,5.77,0,0,0-3-.69c-1.72-.07-3.64.11-4.83,1.37-1.47,1.57-1.07,4.19.2,5.91s3.21,2.81,5,4a11,11,0,0,1,3.56,3.4,3.33,3.33,0,0,1,.27.61h10.79a30.28,30.28,0,0,0,6.7-4.62Z"/><ellipse id="Ellipse_12" data-name="Ellipse 12" class="cls-9" cx="45.28" cy="743.93" rx="29.69" ry="5.02"/><path id="Path_223" data-name="Path 223" class="cls-9" d="M57.56,735.72a8.67,8.67,0,0,0,2.83-4.27,3.81,3.81,0,0,0-2-4.35c-1.82-.7-3.76.56-5.23,1.84s-3.16,2.72-5.09,2.45a7.74,7.74,0,0,0,2.4-7.25,2.91,2.91,0,0,0-.67-1.47c-1-1.08-2.83-.62-4,.23-3.84,2.7-4.91,7.92-4.93,12.61-.39-1.69-.06-3.46-.07-5.17s-.48-3.69-2-4.6a5.77,5.77,0,0,0-3-.69c-1.73-.07-3.65.11-4.83,1.37-1.47,1.57-1.08,4.19.19,5.91s3.22,2.81,5,4a11,11,0,0,1,3.57,3.4,3.33,3.33,0,0,1,.27.61H50.86a30.52,30.52,0,0,0,6.7-4.62Z"/><rect id="Rectangle_22" data-name="Rectangle 22" class="cls-7" y="746.09" width="902.57" height="1.82"/><path id="Path_177" data-name="Path 177" class="cls-4" d="M858.51,50.52s-94.22-5.68-83.12,60.34c0,0-2.24,11.67,8.37,17,0,0,.17-4.89,9.67-3.23a43.89,43.89,0,0,0,10.24.49A21.3,21.3,0,0,0,816.18,120h0S842.66,109,853,65.75c0,0,7.62-9.44,7.32-11.87l-15.9,6.79s5.44,11.47,1.12,21c0,0-.52-20.59-3.57-20.14-.62.09-8.26,4-8.26,4S843,85.48,836,100c0,0,2.68-24.62-5.21-33l-11.19,6.53s10.92,20.64,3.51,37.48c0,0,1.9-25.83-5.87-35.89L807.06,83s10.26,20.33,4,34.3c0,0-.81-30.06-6.2-32.33,0,0-8.87,7.84-10.22,11,0,0,7,14.77,2.66,22.56,0,0-2.68-20-4.87-20.15,0,0-8.84,13.27-9.76,22.38,0,0,.38-13.53,7.62-23.63,0,0-8.55,1.47-13.54,7,0,0,1.38-9.38,15.72-10.2,0,0,7.31-10.08,9.26-10.68,0,0-14.26-1.2-22.91,2.64,0,0,7.61-8.85,25.53-4.82l10-8.18s-18.77-2.56-26.74.27c0,0,9.16-7.84,29.44-2.13L828,64.54s-16-3.45-25.55-2.24c0,0,10.07-5.43,28.75.46l7.83-3.5S827.27,57,823.83,56.59s-3.61-1.31-3.61-1.31a40.67,40.67,0,0,1,22,2.45S858.79,51.56,858.51,50.52Z"/><path id="Path_178" data-name="Path 178" class="cls-1" d="M729.41,15.57S686.89,13,691.86,42.84c0,0-1,5.27,3.78,7.67,0,0,.08-2.24,4.38-1.47a19.29,19.29,0,0,0,4.62.22,9.55,9.55,0,0,0,5.65-2.32h0s12-4.95,16.63-24.51c0,0,3.43-4.26,3.3-5.36L723,20.14s2.45,5.18.53,9.48c0,0-.24-9.3-1.61-9.08-.28,0-3.74,1.8-3.74,1.8s4.23,9,1,15.59c0,0,1.21-11.13-2.36-14.94l-5.06,3s4.94,9.32,1.59,16.93c0,0,.86-11.67-2.65-16.22l-4.58,3.59s4.63,9.18,1.81,15.5c0,0-.38-13.59-2.81-14.62,0,0-4,3.54-4.62,5,0,0,3.18,6.72,1.21,10.2,0,0-1.21-9.06-2.24-9.1,0,0-4,6-4.41,10.07a21.85,21.85,0,0,1,3.45-10.68,12.09,12.09,0,0,0-6.12,3.17s.63-4.24,7.11-4.61c0,0,3.35-4.55,4.18-4.83,0,0-6.44-.54-10.35,1.2,0,0,3.44-4,11.53-2.19l4.47-3.69s-8.49-1.13-12.09.12c0,0,4.14-3.54,13.31-1l4.92-2.94s-7.24-1.55-11.55-1c0,0,4.56-2.45,13,.2l3.52-1.58s-5.3-1-6.86-1.21-1.63-.59-1.63-.59a18.34,18.34,0,0,1,10,1.12S729.54,16,729.41,15.57Z"/><path id="Path_224" data-name="Path 224" class="cls-1" d="M73.67,471s-42.52-2.57-37.55,27.27c0,0-1,5.27,3.78,7.66,0,0,.08-2.24,4.37-1.46a19.93,19.93,0,0,0,4.63.22,9.56,9.56,0,0,0,5.65-2.33h0s12-4.94,16.62-24.5c0,0,3.44-4.27,3.3-5.36l-7.18,3.06s2.45,5.18.53,9.49c0,0-.24-9.3-1.61-9.08-.28,0-3.74,1.8-3.74,1.8s4.23,9,1,15.58c0,0,1.21-11.12-2.36-14.94l-5.06,3s4.93,9.33,1.59,16.94c0,0,.86-11.68-2.65-16.22l-4.58,3.58s4.63,9.19,1.81,15.5c0,0-.38-13.58-2.81-14.61,0,0-4,3.53-4.62,5,0,0,3.18,6.71,1.21,10.19,0,0-1.21-9.05-2.24-9.1,0,0-4,6-4.41,10.07a21.85,21.85,0,0,1,3.45-10.67,12.09,12.09,0,0,0-6.12,3.17s.63-4.24,7.11-4.61c0,0,3.35-4.56,4.18-4.84,0,0-6.44-.53-10.35,1.2,0,0,3.43-4,11.53-2.18l4.47-3.69s-8.49-1.13-12.09.11c0,0,4.14-3.53,13.31-1l4.92-2.94s-7.24-1.56-11.55-1c0,0,4.56-2.45,13,.2L64.77,475s-5.3-1-6.86-1.21-1.63-.59-1.63-.59a18.34,18.34,0,0,1,10,1.12S73.8,471.47,73.67,471Z"/></g></svg>