<svg id="Layer_1" data-name="Layer 1" xmlns="http://www.w3.org/2000/svg" viewBox="0 0 116 146"><defs><style>.cls-1{fill:#577a27;}.cls-2{fill:#73a032;}.cls-3{fill:#94c942;}</style></defs><title>Lock</title><g id="Page-1"><g id="Lock"><path id="Shape" class="cls-1" d="M15,53.6c3.5,0,8.2-.5,11.7-.5,0-6.4.1-13,2.2-19.1A31.52,31.52,0,0,1,57.3,13.1,31.66,31.66,0,0,1,86.7,32.7c2.5,6.5,2.8,13.6,2.6,20.5,3.6,0,7.1,0,10.7-.1a44.77,44.77,0,0,0-13.4-41C55.6-16.2,8.4,10.7,15,53.6Z"/><path class="cls-2" d="M115.2,54.3v84.5a6.91,6.91,0,0,1-6.9,6.9H7.4a6.91,6.91,0,0,1-6.9-6.9V54.3a6.91,6.91,0,0,1,6.9-6.9H108.3a7,7,0,0,1,5.6,2.9A7.07,7.07,0,0,1,115.2,54.3Z"/><path class="cls-3" d="M113.9,50.4v72.1a6.91,6.91,0,0,1-6.9,6.9H6.1a7,7,0,0,1-5.6-2.9V54.4a6.91,6.91,0,0,1,6.9-6.9H108.3A6.46,6.46,0,0,1,113.9,50.4Z"/><path class="cls-1" d="M72.5,87a13.39,13.39,0,0,1-9.4,12.9v14.3a4.1,4.1,0,0,1-8.2,0V99.9A13.52,13.52,0,1,1,72.5,87Z"/></g></g></svg>