<svg id="Layer_1" data-name="Layer 1" xmlns="http://www.w3.org/2000/svg" viewBox="0 0 101 148"><defs><style>.cls-1{fill:#73a032;}.cls-2{fill:#94c942;}.cls-3{fill:#c8ef78;}.cls-4{fill:#dff7a7;}</style></defs><title>Tea</title><g id="Page-1"><g id="Tea"><path id="Shape" class="cls-1" d="M83.1,121.8a17.6,17.6,0,1,1,17.6-17.6A17.63,17.63,0,0,1,83.1,121.8Zm0-27.1a9.5,9.5,0,1,0,9.5,9.5A9.5,9.5,0,0,0,83.1,94.7Z"/><path class="cls-2" d="M83.1,84.8v30.8A31.05,31.05,0,0,1,52,146.7H31.2A31.15,31.15,0,0,1,0,115.6V84.8a7,7,0,0,1,7.1-7h69A7,7,0,0,1,83.1,84.8Z"/><path class="cls-1" d="M77.7,133.6a31.07,31.07,0,0,1-25.8,13.7H31.8A32.09,32.09,0,0,1,7.5,136.2a3.6,3.6,0,0,1,4.5-3.3,63,63,0,0,0,16.2,2H51.3a58.17,58.17,0,0,0,21.5-3.8A3.83,3.83,0,0,1,77.7,133.6Z"/><path class="cls-1" d="M68.7,108.7v14.4a2.91,2.91,0,0,1-3,2.8H51.8a2.91,2.91,0,0,1-3-2.8V108.7a2.88,2.88,0,0,1,.9-2.1l3.5-3.6a3.32,3.32,0,0,1,2.5-1h6.2a3.55,3.55,0,0,1,2.5,1l3.5,3.6A3.44,3.44,0,0,1,68.7,108.7Z"/><path class="cls-3" d="M65.6,105.1v13.2a2.58,2.58,0,0,1-2.6,2.6H51.3a2.58,2.58,0,0,1-2.6-2.6V105.1a3.16,3.16,0,0,1,.7-1.9l2.9-3.2a2.81,2.81,0,0,1,2.1-1h5.2a2.51,2.51,0,0,1,2.1,1l2.9,3.2A2.28,2.28,0,0,1,65.6,105.1Z"/><path class="cls-4" d="M57.4,100.6a1.54,1.54,0,0,1-1.5-1.5V77.4a1.5,1.5,0,0,1,3,0V99.1A1.47,1.47,0,0,1,57.4,100.6Z"/><g id="Group"><path class="cls-3" d="M21.4,103.8a5,5,0,1,0,5,5A4.89,4.89,0,0,0,21.4,103.8Z"/><path class="cls-3" d="M46.9,77.8v9.1a5,5,0,0,1-10,0V85.8a5.33,5.33,0,0,0-1.5-3.6,5.15,5.15,0,0,0-3.6-1.5,5,5,0,0,0-5,5v7.5a5.33,5.33,0,0,1-1.5,3.6,5.15,5.15,0,0,1-3.6,1.5,5,5,0,0,1-5-5V77.9H46.9Z"/></g><path class="cls-3" d="M41.5,68.3a1.34,1.34,0,0,1-1.3-.8,1.44,1.44,0,0,1,.7-2c3.8-1.8,4.5-7.5,3.1-11.9a1.49,1.49,0,1,1,2.8-1c1.8,5.5.9,12.8-4.6,15.5A1.45,1.45,0,0,1,41.5,68.3Z"/><path class="cls-3" d="M38,59.3h-.2a1.5,1.5,0,0,1-1.3-1.7c.3-2.4-1-4.6-2.4-7.1-2.5-4.2-5.6-9.5-.4-17.5a1.51,1.51,0,0,1,2.5,1.7c-4.2,6.4-1.9,10.2.5,14.3,1.6,2.7,3.3,5.5,2.8,9A1.51,1.51,0,0,1,38,59.3Z"/><path class="cls-3" d="M42.8,47.5a1.5,1.5,0,0,1-1.4-1c-3.2-8.1,2.1-12.6,6.7-16.6a27.29,27.29,0,0,0,5.3-5.5c3.6-5.6,2.6-13.1-2.2-17A17.13,17.13,0,0,0,36.7,3.6a13.42,13.42,0,0,0-9.3,7c-2.2,4.4-.8,8.3,1.5,10.2a4.8,4.8,0,0,0,6.2.2,2.6,2.6,0,0,0,1.1-2.1,1.23,1.23,0,0,0-.5-1,1.48,1.48,0,0,1,1.4-2.6,4.05,4.05,0,0,1,2,3.3,5.53,5.53,0,0,1-2.2,4.6A7.59,7.59,0,0,1,27,23c-3.3-2.6-5.2-7.9-2.3-13.9A16.36,16.36,0,0,1,36,.5,20.15,20.15,0,0,1,53.1,4.9c6,4.8,7.2,14.1,2.9,21A30.45,30.45,0,0,1,50.2,32c-4.4,3.8-8.2,7.2-5.9,13.3a1.45,1.45,0,0,1-.9,1.9A.6.6,0,0,1,42.8,47.5Z"/></g></g></svg>