<svg id="a80234ba-f3f6-42a2-9225-8d803f7486aa" xmlns="http://www.w3.org/2000/svg" viewBox="0 0 877 639.47"><defs><style>.cls-1{fill:#e6e6e6;}.cls-2{fill:#fff;}.cls-3{fill:#94c942;}.cls-4{fill:#3f3d56;}.cls-5{opacity:0.1;}.cls-5,.cls-6{isolation:isolate;}.cls-6{opacity:0.05;}.cls-7{fill:#ffb8b8;}.cls-8{fill:#2f2e41;}.cls-9{fill:#575a89;}</style></defs><title>web_shopping-green</title><rect class="cls-1" x="0.28" y="0.37" width="644.72" height="412.91"/><rect class="cls-2" x="18.71" y="52.15" width="607.85" height="336.69"/><rect class="cls-3" width="644.72" height="27.39"/><circle class="cls-2" cx="20.35" cy="14" r="5.08"/><circle class="cls-2" cx="39.62" cy="14" r="5.08"/><circle class="cls-2" cx="58.89" cy="14" r="5.08"/><rect class="cls-1" x="93.5" y="79.85" width="118.89" height="128.98"/><rect class="cls-1" x="263.19" y="79.85" width="118.89" height="128.98"/><rect class="cls-1" x="432.88" y="79.85" width="118.89" height="128.98"/><rect class="cls-1" x="93.5" y="232.18" width="118.89" height="128.98"/><rect class="cls-1" x="263.19" y="232.18" width="118.89" height="128.98"/><rect class="cls-1" x="432.88" y="232.18" width="118.89" height="128.98"/><path class="cls-2" d="M291.93,265.33l21.72-8.59,2.53,42.94s4.54,13.13,3,18.18c0,0,1,8.59-1.52,9.09s-9.6,1.52-10.1,1-.51-2-.51-2-5.05,3.54-5.55,7.58c0,0-21.22,6.57-21.73.51s10.61-11.12,10.61-11.12L299,309.78Z"/><path class="cls-2" d="M337.9,265.33l21.72-8.59,2.53,42.94s4.54,13.13,3,18.18c0,0,1,8.59-1.52,9.09s-9.6,1.52-10.1,1-.51-2-.51-2-5.05,3.54-5.55,7.58c0,0-21.22,6.57-21.73.51s10.61-11.12,10.61-11.12L345,309.78Z"/><path class="cls-4" d="M340,99.51s-4.62,12.92.74,18.75l-4.47,15.35s15.87,47.63,11.34,54.28c0,0-16.94,8.46-50.8-3l13.76-53.36-2-22.53,2.72-10.58,6.05-.61s-3.63,13.61,3,15.73,13.15-15.39,13.15-15.39Z"/><path class="cls-2" d="M126.42,182.94l5.84,2.39,27.86-36.61,8.75,43,5.84-1.06c3.74-37.06,6.8-74.85,3-92.73L156.14,97l-9.82,31.31-4.78,21.22Z"/><path class="cls-2" d="M480.68,97.61s-8,11.08-7.58,15.55,5.44,77.32,5.44,77.32l11.85.58-3.49-52.45,2.91-14.19L497,190.48l14.57.39-13-85.68L496,97.61Z"/><path class="cls-4" d="M525.7,276c-2.11-2.54-5.75-3.91-9.24-4.65.1-.32-10.62-2.54-10.8-2.08l-4-3.22-12.42,6.45-7-4.75L479,268.92c.13-.57-10.07,1.19-10.07,1.19-1.94.07-4.43.19-7.21.41-9.75.75-10.5,26-10.5,26a39.76,39.76,0,0,1,14.11-3l2.64,30.2c13.55-1.16,27.76.19,42.49,3.5l6.91-23.74,16.09-6.25S530.7,282,525.7,276Z"/><path class="cls-2" d="M180.44,261.64c-1.74-2.09-4.74-3.22-7.61-3.83.08-.27-8.75-2.09-8.9-1.71l-3.33-2.66-10.23,5.31-5.75-3.91-2.67.95c.11-.47-8.29,1-8.29,1-1.6.06-3.65.16-6,.34-8,.62-8.65,21.42-8.65,21.42a33,33,0,0,1,11.63-2.44L132.86,337c11.17-1,22.88.15,35,2.88l5.69-55.59,13.26-5.15S184.56,266.58,180.44,261.64Z"/><polygon class="cls-1" points="613 612.62 532.58 629.08 530.75 628.89 460.07 621.76 460.07 532.2 546.59 517.57 609.35 524.89 609.37 525.28 609.37 525.47 613 612.62"/><polygon class="cls-5" points="613 612.62 532.58 629.08 530.75 628.89 530.75 537.08 609.37 525.28 613 612.62"/><polygon class="cls-6" points="609.37 525.47 609.35 525.5 530.75 537.08 460.07 532.2 546.59 517.57 609.35 524.89 609.37 525.28 609.37 525.47"/><rect class="cls-2" x="482" y="552.02" width="23" height="49" transform="translate(-113.94 1031.43) rotate(-86.27)"/><rect class="cls-3" x="489.5" y="563.52" width="8" height="26" transform="translate(-113.94 1031.43) rotate(-86.27)"/><polygon class="cls-3" points="722 612.62 641.58 629.08 639.75 628.89 569.07 621.76 569.07 532.2 655.59 517.57 718.35 524.89 718.37 525.28 718.37 525.47 722 612.62"/><polygon class="cls-5" points="722 612.62 641.58 629.08 639.75 628.89 639.75 537.08 718.37 525.28 722 612.62"/><polygon class="cls-6" points="718.37 525.47 718.35 525.5 639.75 537.08 569.07 532.2 655.59 517.57 718.35 524.89 718.37 525.28 718.37 525.47"/><rect class="cls-2" x="591" y="552.02" width="23" height="49" transform="translate(-12.04 1140.2) rotate(-86.27)"/><rect class="cls-3" x="598.5" y="563.52" width="8" height="26" transform="translate(-12.04 1140.2) rotate(-86.27)"/><path class="cls-7" d="M780.19,165.62s14.19,36.66-11.82,36.66,40.2,36.65,66.22,15.37,10.64-22.47,10.64-22.47-34.29,3.55-33.11-27.19Z"/><circle class="cls-8" cx="798.68" cy="134.84" r="41.82"/><path class="cls-8" d="M773.1,318.16,728.17,434S705.7,469.51,714,505s31,100,31,100,17.18,4.38,16-11,.74-89.89-17-110l71.67-81.91L818,495.53S813.3,538.1,814.49,557,818,607.86,818,607.86l14.19-2.36S851.36,518.4,849,490c0,0,43.93-137.89-1-171Z"/><path class="cls-8" d="M749.94,604.83s-5.79-1.47-6.45,3.84-12.84,28.9-.13,30.08,17.1-10.7,19.22-19.06,2.94-8.84,4.72-10.44,6-10.37.7-11-8-5.88-8-5.88S758.3,607,749.94,604.83Z"/><path class="cls-8" d="M827.3,600.73s-10.73-1.53-10,2.3-1.53,19.92,0,21.46,4.6,4.6,4.6,6.89.77,10,13.8,7.67,10-13.8,9.19-15.33-10-9.2-9.19-13.79S831.9,597.66,827.3,600.73Z"/><circle class="cls-7" cx="799.2" cy="152.28" r="28.97"/><path class="cls-9" d="M826.9,192.23s10.11,20-20.35,20.55c-9.36.18-20.49-6.65-25.09-14.8-2.71-4.81-3.39,1.83-7.77,1.34-8.29-.92-17.15,2.52-25.07,6.73a5,5,0,0,0-2.45,5.87c6,19.94,23.18,115.88,25.83,121.1,6.77,13.34,80-9,80-9,1-36.29-12.17-87.07,11-124A44.1,44.1,0,0,0,826.9,192.23Z"/><polygon class="cls-8" points="826.28 130 805.06 118.89 775.75 123.43 769.69 150.21 784.78 149.63 789 139.79 789 149.47 795.97 149.2 800.01 133.54 802.53 150.21 827.29 149.71 826.28 130"/><circle class="cls-8" cx="800.88" cy="87.15" r="16.87"/><path class="cls-8" d="M779.6,82a16.88,16.88,0,0,1,14.31-16.68,16.87,16.87,0,1,0,0,33.36A16.88,16.88,0,0,1,779.6,82Z"/><polygon class="cls-1" points="877 483.62 796.58 500.08 794.75 499.89 724.07 492.76 724.07 403.2 810.59 388.57 873.35 395.89 873.37 396.29 873.37 396.47 877 483.62"/><polygon class="cls-5" points="877 483.62 796.58 500.08 794.75 499.89 794.75 408.08 873.37 396.29 877 483.62"/><polygon class="cls-6" points="873.37 396.47 873.35 396.5 794.75 408.08 724.07 403.2 810.59 388.57 873.35 395.89 873.37 396.29 873.37 396.47"/><rect class="cls-2" x="746" y="423.02" width="23" height="49" transform="translate(261.59 1174.27) rotate(-86.27)"/><rect class="cls-3" x="753.5" y="434.52" width="8" height="26" transform="translate(261.59 1174.27) rotate(-86.27)"/><path class="cls-7" d="M751.72,380.19s-29.56,23.65-16.55,31.93,28.38-31.93,28.38-31.93Z"/><path class="cls-9" d="M753,205c-1.53-1.72-20.87,8.14-18,21l1.35,89.14s-7.1,73.31,10.64,73.31,15.65,2.47,18-3.45,3-56,3-56Z"/><path class="cls-7" d="M844.45,372.19s15.38,40.21,28.38,31.93-16.55-31.93-16.55-31.93Z"/><path class="cls-9" d="M848,322s-7.36,49.09-5,55,.27,3.45,18,3.45,10.64-73.31,10.64-73.31L873,218c2.87-12.86-16.47-22.72-18-21l-17,58Z"/></svg>