<svg id="Layer_1" data-name="Layer 1" xmlns="http://www.w3.org/2000/svg" viewBox="0 0 200.4 66.5"><defs><style>.cls-1{fill:#d3dce6;}</style></defs><title>klaviyo</title><path class="cls-1" d="M2.57,31.09,32.87,11a4.26,4.26,0,0,1,4.26,0L67.42,31.09a2.44,2.44,0,0,1,1.13,3.24,2.32,2.32,0,0,1-1.13,1.12l-4.06,2.67a33.58,33.58,0,0,0-56.76,0L2.5,35.45a2.46,2.46,0,0,1-1-3.27A2.73,2.73,0,0,1,2.57,31.09ZM35,30.86A25.36,25.36,0,0,0,13.56,42.71l7,4.62a16.78,16.78,0,0,1,28.74,0l7-4.62A24.91,24.91,0,0,0,35,30.86Zm0,16.77A8.57,8.57,0,0,0,27.56,52l4.68,3.07A4.1,4.1,0,0,0,35,56a4.16,4.16,0,0,0,2.7-1L42.34,52A8.41,8.41,0,0,0,35,47.63Z"/><path class="cls-1" d="M87.56,33.14,95.15,44H89.8l-5.74-8.45V44H79.7V22.45h4.36v8.61l5.44-8.61h5Zm15.08-10.63H98.28V44.1h11.13V39.74h-6.87l.1-17.23Zm19.64-.79,9.07,22.34h-4.88l-.86-2.34h-7.16l-.86,2.34h-4.92l9.08-22.34Zm1.75,16-2-5.57-2,5.57Zm13.43-3.2-4.46-12h-4.88l9.07,22.35h.43l9.08-22.35h-4.92ZM150,44.1h4.36V22.51H150Zm21.59-21.59L167.23,30l-4.39-7.46h-5.25l7.49,11.85V44.1h4.29V34.36l7.56-11.85Zm27.59,10.4A11.19,11.19,0,1,1,188,21.72h0A11.2,11.2,0,0,1,199.21,32.91Zm-4.19,0a7,7,0,1,0-7,7h0a7,7,0,0,0,7-6.93v0Z"/></svg>