<svg id="Layer_1" data-name="Layer 1" xmlns="http://www.w3.org/2000/svg" viewBox="0 0 200.4 66.5"><defs><style>.cls-1,.cls-2{fill:#d3dce6;}.cls-1{fill-rule:evenodd;}</style></defs><title>square</title><path class="cls-1" d="M12,9H44.26a8.09,8.09,0,0,1,8.09,8.09V49.37a8.09,8.09,0,0,1-8.09,8.09H12a8.09,8.09,0,0,1-8.09-8.09V17.13A8.09,8.09,0,0,1,12,9ZM41,48.66a2.56,2.56,0,0,0,2.55-2.56V20.4A2.56,2.56,0,0,0,41,17.84H15.29a2.56,2.56,0,0,0-2.56,2.56V46.1a2.56,2.56,0,0,0,2.56,2.56Z"/><path class="cls-2" d="M23,39.82a1.47,1.47,0,0,1-1.45-1.47V28.09a1.43,1.43,0,0,1,.42-1,1.47,1.47,0,0,1,1-.44H33.29a1.51,1.51,0,0,1,1,.44,1.48,1.48,0,0,1,.42,1V38.35a1.45,1.45,0,0,1-1.46,1.47Z"/><path class="cls-2" d="M77,31.09a29.94,29.94,0,0,1-4-1.28c-2-.91-3-2.18-3-4,0-3.4,3.29-4.93,6.57-4.93a9.48,9.48,0,0,1,7.65,3.62l.13.16L87,22.62l-.13-.16A12.6,12.6,0,0,0,76.7,17.68a11.88,11.88,0,0,0-7,2.08A7.46,7.46,0,0,0,66.54,26c0,6,5.65,7.47,10.2,8.64s7.41,2.14,7.41,5.64S81.36,46,77,46a9.94,9.94,0,0,1-8.57-4.36l-.12-.18-2.76,2,.1.16a13,13,0,0,0,11.14,5.6c6.43,0,10.75-3.63,10.75-9C87.58,34,81.71,32.38,77,31.09Z"/><path class="cls-1" d="M108.56,29.84V26.6h3.09V57.46h-3.09V45.4A9.05,9.05,0,0,1,101,49.15c-5.89,0-10-4.71-10-11.52s4.12-11.54,10-11.54A9.11,9.11,0,0,1,108.56,29.84ZM94.29,37.6c0,6.29,3.61,8.54,7,8.54h0c4.42,0,7.28-3.38,7.28-8.54s-2.86-8.5-7.28-8.5C96.13,29.1,94.29,33.49,94.29,37.6Z"/><path class="cls-2" d="M132.11,26.6V38.78c0,4.26-2.92,7.36-6.94,7.36-3.34,0-5-2-5-6.06V26.6h-3.09V40.71c0,5.29,2.87,8.44,7.68,8.44a8.91,8.91,0,0,0,7.32-3.59v3.09h3.09v-22Z"/><path class="cls-1" d="M141,28.91a14,14,0,0,1,8.49-2.82c4.92,0,7.85,2.45,7.84,6.55v16h-3.09V46.21a8.18,8.18,0,0,1-6.73,2.95c-4.74,0-7.69-2.6-7.69-6.76,0-5.42,5.11-6.27,7.28-6.64l1.09-.17h0c3-.46,6-.93,6-3.45,0-2.85-3.71-3.08-4.84-3.08a10.8,10.8,0,0,0-6.76,2.27l-.18.15L140.88,29Zm2.05,13.31c0,3.54,3.33,3.92,4.76,3.92h0c3.11,0,6.44-1.66,6.43-6.32V36.63a16.17,16.17,0,0,1-5.57,1.66h0l-1,.17C144.64,39,143.08,39.77,143.08,42.22Z"/><path class="cls-2" d="M175.29,27a5.61,5.61,0,0,0-3.1-.83,7.86,7.86,0,0,0-6.27,3.23V26.59h-3.1V48.64h3.1V36.84c0-5.23,2.94-7.57,5.85-7.57a5.72,5.72,0,0,1,2.47.53l.2.11,1-2.81Z"/><path class="cls-1" d="M176.19,37.68c0-6.82,4.26-11.59,10.34-11.59,5.86,0,10,4.23,9.94,10.3,0,.53,0,1.06-.08,1.58l0,.18H179.45c.08,4.86,3,8,7.49,8a7.72,7.72,0,0,0,6.27-3l.13-.17,2.24,2-.12.15a10.85,10.85,0,0,1-8.69,4C180.45,49.15,176.19,44.54,176.19,37.68Zm10.26-8.62a6.67,6.67,0,0,0-6.88,6.36H193.2C192.94,32.31,191,29.06,186.45,29.06Z"/></svg>