<svg id="Layer_1" data-name="Layer 1" xmlns="http://www.w3.org/2000/svg" viewBox="0 0 200.4 66.5"><defs><style>.cls-1,.cls-2{fill:#d3dce6;}.cls-1{fill-rule:evenodd;}</style></defs><title>stripe</title><g id="layer1"><g id="Stripe"><path id="path5516" class="cls-1" d="M175.32,34.29c0-10.68-5.17-19.11-15.06-19.11s-15.95,8.43-15.95,19c0,12.56,7.1,18.91,17.28,18.91a23.22,23.22,0,0,0,11.56-2.72V42.06a22.27,22.27,0,0,1-10.22,2.29c-4.05,0-7.64-1.42-8.1-6.34h20.41C175.24,37.47,175.32,35.29,175.32,34.29Zm-20.62-4c0-4.72,2.88-6.68,5.51-6.68s5.26,2,5.26,6.68Z"/><path id="path5518" class="cls-1" d="M128.2,15.18A11.81,11.81,0,0,0,120,18.43l-.54-2.58H110.3V64.51l10.43-2.21,0-11.81a11.82,11.82,0,0,0,7.39,2.63c7.47,0,14.27-6,14.27-19.24,0-12.11-6.92-18.7-14.23-18.7Zm-2.5,28.75a6.25,6.25,0,0,1-4.93-2l0-15.48a6.23,6.23,0,0,1,5-2c3.8,0,6.43,4.26,6.43,9.73S129.54,43.93,125.7,43.93Z"/><polygon id="polygon5520" class="cls-1" points="106.42 10.46 106.42 1.99 95.94 4.2 95.94 12.72 106.42 10.46"/><rect id="rect5522" class="cls-2" x="95.94" y="15.89" width="10.48" height="36.52"/><path id="path5524" class="cls-1" d="M84.72,19l-.67-3.09H75V52.41H85.47V27.66c2.46-3.22,6.63-2.63,7.93-2.17v-9.6c-1.34-.5-6.22-1.42-8.68,3.09Z"/><path id="path5526" class="cls-1" d="M63.85,6.83,53.67,9l-.05,33.43A10.49,10.49,0,0,0,64.43,53.16a16.15,16.15,0,0,0,7.31-1.38V43.31c-1.34.54-7.93,2.46-7.93-3.72V24.78h7.93V15.89H63.81Z"/><path id="path5528" class="cls-1" d="M35.64,26.49c0-1.63,1.33-2.25,3.54-2.25a23.26,23.26,0,0,1,10.35,2.67V17.1a27.43,27.43,0,0,0-10.35-1.92c-8.47,0-14.1,4.42-14.1,11.81,0,11.52,15.86,9.68,15.86,14.65,0,1.92-1.67,2.54-4,2.54a25.94,25.94,0,0,1-11.39-3.33v9.93a28.9,28.9,0,0,0,11.39,2.38c8.68,0,14.65-4.3,14.65-11.77,0-12.44-15.94-10.23-15.94-14.9Z"/></g></g></svg>